<?xml version="1.0" standalone="no"?>
<!DOCTYPE svg PUBLIC "-//W3C//DTD SVG 20010904//EN"
 "http://www.w3.org/TR/2001/REC-SVG-20010904/DTD/svg10.dtd">
<svg version="1.0" xmlns="http://www.w3.org/2000/svg"
 width="1266.000000pt" height="1280.000000pt" viewBox="0 0 1266.000000 1280.000000"
 preserveAspectRatio="xMidYMid meet">
<metadata>
Created by potrace 1.15, written by Peter Selinger 2001-2017
</metadata>
<g transform="translate(0.000000,1280.000000) scale(0.100000,-0.100000)"
fill="red" stroke="none">
<path d="M12270 12653 c-596 -561 -855 -831 -1087 -1138 -149 -198 -278 -427
-343 -610 -32 -94 -110 -398 -136 -539 -19 -97 -56 -255 -84 -351 -33 -115
-86 -372 -140 -685 -116 -673 -221 -1201 -289 -1450 -21 -80 -76 -289 -121
-465 -45 -176 -111 -430 -146 -565 -115 -440 -201 -790 -269 -1095 -112 -507
-174 -729 -345 -1240 -56 -165 -114 -345 -130 -401 -67 -240 -65 -511 5 -538
54 -20 66 6 76 174 13 191 41 322 79 365 18 20 69 138 88 205 5 19 26 89 47
155 71 232 167 596 301 1135 173 698 283 1131 434 1705 211 801 252 979 305
1335 66 438 204 1049 429 1902 91 345 95 356 159 483 145 291 386 603 818
1058 195 205 324 348 351 387 14 20 19 22 27 11 23 -34 60 -412 91 -921 30
-503 39 -627 61 -831 20 -191 17 -276 -13 -369 -28 -90 -34 -97 -474 -576
-518 -563 -1147 -1315 -1121 -1340 8 -8 184 183 497 536 487 551 1001 1110
1020 1110 10 0 -16 -121 -74 -344 -83 -317 -115 -419 -150 -471 -50 -75 -239
-313 -541 -680 -402 -489 -555 -682 -555 -700 0 -24 249 250 606 665 278 323
405 460 427 460 13 0 -84 -316 -327 -1060 -152 -466 -206 -640 -206 -658 0
-35 31 15 56 91 58 178 180 475 190 464 3 -3 -31 -151 -75 -329 -44 -177 -103
-429 -130 -559 -64 -295 -121 -501 -206 -744 -141 -399 -204 -603 -240 -775
-20 -96 -40 -179 -44 -183 -4 -4 -70 -14 -147 -22 -199 -21 -243 -32 -276 -67
-40 -43 -67 -127 -84 -258 -34 -268 -41 -293 -111 -346 -22 -17 -82 -45 -134
-64 -246 -87 -374 -193 -481 -397 -80 -153 -158 -441 -158 -584 0 -46 -4 -63
-20 -79 -23 -23 -57 -25 -84 -5 -27 21 -90 19 -193 -6 -78 -18 -103 -20 -213
-13 -209 14 -342 9 -532 -20 -200 -30 -415 -43 -533 -31 l-80 8 135 27 c74 15
187 42 250 60 89 26 140 34 225 38 119 5 145 15 145 59 0 14 -13 44 -30 68
-131 191 -244 884 -160 987 l18 23 22 -20 23 -20 -6 105 c-8 170 -84 385 -172
490 -53 63 -118 162 -217 330 -127 214 -306 459 -492 675 -113 130 -135 168
-147 252 -5 37 -23 99 -40 136 -30 66 -31 75 -40 265 -11 242 -23 355 -56 541
-31 171 -33 166 85 177 71 6 121 5 409 -12 170 -10 191 5 234 171 18 70 23
116 23 210 0 188 -42 311 -182 534 -72 113 -86 151 -57 151 8 0 15 -4 15 -8 0
-5 6 -17 14 -27 13 -18 15 -18 38 -3 14 10 47 61 76 120 29 57 72 126 97 155
25 28 45 56 45 61 0 6 20 34 44 62 29 34 47 66 51 91 4 22 25 66 47 99 21 33
43 74 49 92 5 18 9 104 9 192 l0 159 98 106 c343 370 404 477 689 1201 170
434 233 654 233 817 0 84 -16 123 -49 123 -28 0 -135 -83 -158 -122 -33 -55
-286 -320 -559 -584 -377 -364 -447 -427 -536 -478 -27 -15 -48 -32 -48 -38 0
-13 -36 10 -110 70 -69 57 -396 275 -461 308 -27 13 -88 34 -137 45 -111 27
-264 73 -517 156 -228 75 -176 71 -595 48 -341 -20 -412 -32 -570 -99 -164
-70 -184 -76 -243 -76 -45 0 -82 15 -296 119 -340 165 -630 297 -1091 496
-294 128 -684 318 -747 366 -58 43 -123 129 -177 234 -40 79 -51 94 -86 118
-31 21 -69 22 -98 1 -19 -13 -22 -24 -22 -82 0 -123 94 -606 167 -856 98 -341
230 -598 374 -732 24 -22 75 -67 114 -100 38 -32 128 -115 200 -183 145 -138
289 -264 381 -334 33 -25 68 -57 78 -71 16 -25 40 -125 32 -133 -2 -2 -31 9
-63 26 -113 56 -297 65 -488 22 -49 -11 -175 -32 -280 -46 -330 -45 -581 -110
-856 -221 -741 -297 -1748 -1036 -1958 -1438 -48 -90 -44 -124 29 -235 70
-106 100 -163 100 -188 0 -10 9 -33 20 -51 29 -47 25 -57 -30 -81 -75 -32
-145 -35 -426 -16 -302 20 -321 17 -379 -46 -34 -38 -37 -45 -31 -83 33 -205
542 -1367 715 -1629 98 -149 157 -200 541 -463 446 -305 508 -357 648 -532 60
-75 221 -288 359 -472 138 -184 288 -382 334 -439 219 -271 277 -347 382 -491
165 -227 366 -484 521 -663 75 -87 136 -162 136 -166 0 -4 -18 -50 -39 -102
-63 -150 -76 -232 -75 -459 0 -162 4 -212 22 -293 75 -338 224 -605 465 -833
97 -92 171 -144 248 -175 129 -51 430 -86 641 -74 131 7 191 -2 201 -30 3 -7
-17 -42 -45 -77 -28 -34 -87 -117 -131 -183 -44 -66 -110 -160 -146 -210 -82
-113 -121 -190 -121 -237 0 -34 20 -68 40 -68 4 0 66 32 136 71 229 127 363
189 674 314 168 68 399 162 514 209 228 93 297 113 339 97 15 -6 27 -16 27
-22 0 -6 -81 -91 -179 -188 -181 -177 -249 -263 -273 -344 -11 -38 -11 -41 16
-63 15 -13 37 -24 50 -24 41 0 128 31 336 119 113 48 229 95 259 105 30 10
131 51 225 93 94 42 196 84 226 95 66 24 101 44 298 170 364 233 872 519 872
490 0 -9 -62 -84 -168 -203 -88 -100 -104 -131 -79 -156 32 -32 106 6 317 162
408 302 602 415 1202 703 164 79 265 139 302 181 13 14 20 39 22 77 4 69 23
94 73 94 34 0 191 -66 191 -80 0 -4 -17 -15 -37 -24 -21 -9 -49 -26 -63 -36
-24 -18 -24 -20 -4 -20 11 0 53 11 94 25 40 14 110 31 155 39 136 24 238 74
570 281 267 167 290 176 606 264 247 68 401 144 557 276 171 144 328 347 443
577 l52 103 -17 445 c-32 832 -35 841 -315 1149 -84 92 -139 130 -187 131 -12
0 -44 20 -70 44 -87 77 -164 106 -357 130 -124 16 -157 27 -157 52 0 9 20 81
45 161 97 312 174 614 334 1308 105 458 168 705 336 1330 243 902 357 1347
395 1535 12 58 36 173 55 255 60 267 74 356 125 776 20 159 20 179 7 212 -23
54 -40 184 -57 447 -12 174 -40 441 -105 990 -50 419 -53 440 -63 440 -4 0
-72 -62 -152 -137z m-8817 -763 c207 -124 499 -271 789 -395 122 -53 315 -141
428 -194 113 -54 284 -133 380 -177 349 -157 431 -218 663 -492 101 -120 126
-121 107 -6 -13 81 -36 146 -82 241 -22 46 -38 89 -35 97 31 81 496 198 792
200 119 1 121 1 275 -51 85 -28 232 -72 325 -96 278 -74 365 -113 521 -237 66
-52 97 -70 119 -70 25 0 45 -15 115 -89 47 -48 108 -126 136 -172 92 -152 192
-333 213 -386 26 -66 65 -223 82 -328 17 -101 16 -387 0 -482 -17 -97 -41
-123 -113 -123 -83 0 -236 -19 -291 -35 -47 -14 -52 -14 -81 5 -17 10 -44 33
-59 50 -16 16 -39 33 -51 36 -26 6 -108 -28 -187 -78 -79 -49 -104 -58 -163
-58 -72 0 -110 27 -166 120 -67 112 -125 162 -326 282 -214 128 -428 244 -467
253 -30 8 -62 45 -95 110 -28 56 -62 86 -90 78 -34 -8 -37 -45 -10 -105 37
-81 116 -168 250 -275 67 -54 126 -105 132 -115 7 -12 3 -24 -22 -52 -39 -45
-46 -71 -40 -150 6 -74 52 -177 101 -230 39 -40 87 -56 264 -87 134 -22 240
-22 285 2 13 6 40 27 60 45 42 38 54 41 153 47 49 3 93 14 148 37 43 18 79 31
81 29 1 -2 24 -44 50 -94 70 -131 168 -291 233 -381 214 -297 261 -418 251
-635 -5 -105 -17 -135 -65 -166 -23 -15 -48 -18 -173 -16 -195 3 -268 19 -403
89 -60 31 -156 73 -213 94 -148 55 -174 75 -486 372 -224 211 -319 288 -360
288 l-30 0 4 -52 c3 -53 3 -53 -26 -51 -62 4 -229 140 -281 229 -13 23 -34 68
-46 100 -26 71 -44 94 -75 94 -35 0 -38 -27 -31 -259 16 -548 110 -798 350
-930 43 -24 98 -58 123 -77 24 -19 51 -34 59 -34 19 0 70 -25 185 -91 47 -26
118 -57 159 -68 54 -14 82 -28 110 -54 45 -43 121 -92 231 -147 149 -75 211
-119 231 -164 21 -50 43 -193 64 -426 8 -96 18 -205 21 -241 10 -114 -25 -116
-230 -10 -173 89 -302 170 -371 233 -76 70 -87 93 -79 172 9 85 1 116 -30 116
-16 0 -37 -15 -64 -47 l-40 -48 -29 65 c-17 36 -50 89 -74 119 -63 76 -89 122
-89 157 0 38 -21 58 -50 49 -12 -4 -33 -4 -48 0 -17 4 -172 151 -432 409 -223
221 -430 423 -461 449 -110 91 -145 173 -184 430 -15 94 -35 213 -46 262 -11
50 -24 130 -30 179 -5 49 -16 103 -24 119 -10 19 -12 34 -6 40 5 5 80 12 165
15 172 5 176 8 90 58 -52 31 -84 40 -200 59 -157 25 -405 124 -521 208 -59 42
-93 115 -142 302 -82 314 -143 421 -282 490 -80 41 -113 77 -245 267 -110 158
-177 230 -308 333 -99 77 -192 181 -248 275 -58 99 -174 471 -228 734 -25 122
-25 136 -1 136 10 0 93 -45 184 -100z m5912 -332 c-31 -142 -197 -565 -274
-696 -22 -38 -92 -169 -156 -291 -170 -328 -214 -391 -329 -469 -79 -54 -99
-78 -76 -92 8 -5 25 -10 38 -10 13 0 22 -6 22 -16 0 -17 -94 -179 -109 -189
-10 -5 -21 53 -21 111 0 56 -44 139 -131 249 -121 153 -150 201 -165 272 -7
36 -11 69 -9 73 3 4 16 11 30 14 14 4 78 45 141 92 251 186 600 509 799 739
107 123 226 245 240 245 4 0 3 -15 0 -32z m-2284 -2427 c30 -25 18 -50 -32
-68 -42 -15 -146 -17 -154 -3 -10 16 45 59 94 74 61 19 65 19 92 -3z m1079
-171 c-22 -41 -155 -169 -183 -176 -15 -3 -29 -5 -31 -3 -2 2 -7 30 -10 61 -7
56 -7 57 23 72 26 14 183 64 204 65 4 1 3 -8 -3 -19z m-5523 -104 c122 -33
224 -93 366 -218 120 -104 218 -158 287 -158 57 0 71 13 77 74 7 63 -13 137
-53 193 -41 58 -32 63 52 33 187 -69 303 -104 413 -126 224 -44 369 -87 463
-136 58 -31 96 -63 85 -74 -3 -3 -59 12 -124 34 -138 48 -216 63 -318 63 -70
0 -112 -11 -127 -35 -17 -26 11 -37 179 -71 172 -35 339 -92 508 -175 209
-102 309 -172 460 -325 117 -118 192 -215 166 -215 -5 0 -60 11 -123 25 -256
55 -450 85 -552 85 -55 0 -294 9 -531 21 -482 23 -596 20 -1048 -27 -133 -13
-285 -29 -337 -34 -167 -17 -465 -30 -832 -37 l-357 -6 -35 72 c-61 128 -76
334 -28 395 13 17 22 43 22 63 0 43 16 73 37 73 10 0 40 24 68 54 98 104 162
121 245 66 54 -36 62 -36 136 -8 l57 22 16 -24 c47 -72 120 -157 144 -168 22
-11 42 -11 99 -2 94 14 149 40 179 81 22 31 24 44 24 144 0 91 -3 116 -18 139
-11 17 -16 37 -13 51 8 32 125 139 167 152 49 16 185 15 246 -1z m3542 -413
c25 -15 88 -55 139 -91 l92 -64 0 -181 c0 -174 -9 -249 -31 -263 -15 -9 -57
22 -74 56 -59 115 -202 570 -179 570 4 0 28 -12 53 -27z m434 -350 c54 -82 97
-161 97 -179 0 -45 -98 32 -136 108 -24 47 -34 138 -15 138 5 0 30 -30 54 -67z
m131 -272 c26 -5 52 -14 57 -22 5 -8 9 -51 9 -95 0 -89 -11 -111 -52 -101 -41
11 -118 66 -138 99 -22 37 -26 98 -8 116 14 14 60 15 132 3z m-2774 -84 c113
-20 311 -50 440 -67 373 -49 739 -129 848 -184 28 -14 78 -50 110 -78 34 -31
80 -60 109 -70 30 -11 84 -47 143 -96 146 -121 329 -319 279 -300 -41 15 -59
18 -59 10 0 -27 218 -304 436 -553 139 -160 264 -319 264 -337 0 -9 -36 6 -97
39 -265 142 -362 187 -438 204 -184 41 -675 329 -1088 639 -93 69 -197 142
-231 161 -60 33 -69 35 -217 46 -258 19 -738 -3 -1039 -47 -307 -45 -562 -114
-735 -201 -97 -49 -431 -305 -690 -528 -184 -160 -577 -572 -616 -647 -11 -21
-25 -38 -33 -38 -20 0 -47 35 -41 52 4 10 -22 33 -87 76 -163 107 -194 150
-418 565 -193 358 -239 488 -243 683 -2 106 -1 112 25 146 41 54 85 70 213 76
137 6 293 -12 382 -43 37 -13 71 -21 75 -19 13 8 9 37 -7 58 -21 28 -20 29 30
86 26 29 45 61 45 74 0 59 44 70 406 96 766 56 1441 144 1719 225 82 24 274
14 515 -28z m3307 -9 c49 -18 77 -38 54 -38 -19 0 -141 52 -147 62 -7 11 11 7
93 -24z m-128 -197 c103 -101 140 -132 167 -137 40 -7 64 -36 64 -76 0 -38
-15 -35 -66 12 -47 43 -55 46 -86 29 -27 -15 -67 -3 -77 23 -4 12 -4 40 1 61
5 22 6 42 3 45 -3 3 -23 -5 -45 -17 -44 -25 -74 -21 -91 10 -10 19 -39 156
-39 185 0 26 31 1 169 -135z m156 60 c57 -18 60 -20 60 -52 0 -45 -17 -46 -65
-3 -34 31 -68 74 -58 74 2 0 30 -9 63 -19z m-6578 -115 c105 -23 144 -63 82
-85 -56 -19 -126 -24 -195 -12 -82 15 -122 34 -134 66 -9 23 -15 25 -70 25
-56 0 -77 11 -47 24 21 10 299 -4 364 -18z m5030 -190 c88 -89 107 -116 82
-116 -15 0 -172 157 -188 188 -25 48 15 20 106 -72z m429 -285 c54 -33 163
-151 187 -204 29 -63 41 -107 28 -107 -26 0 -215 219 -252 293 -22 43 -12 48
37 18z m-2169 -404 c33 -18 45 -33 146 -186 34 -52 74 -112 90 -135 59 -88 30
-119 -248 -258 l-205 -103 -17 25 c-63 91 -127 132 -150 98 -4 -7 -7 -57 -5
-112 3 -112 -3 -128 -70 -176 -51 -37 -68 -37 -109 -3 -46 39 -119 141 -119
167 0 12 -18 58 -40 101 -60 118 -51 187 42 336 98 155 179 210 378 254 88 20
264 15 307 -8z m2936 -156 c159 -97 416 -214 531 -242 67 -16 152 -99 300
-288 304 -391 465 -665 563 -959 58 -173 63 -252 20 -325 -15 -25 -47 -62 -70
-81 -173 -141 -255 -206 -300 -239 -50 -37 -217 -127 -235 -127 -5 0 -12 43
-16 95 -13 172 -47 261 -299 780 -174 360 -287 604 -287 621 0 13 24 -3 83
-56 95 -84 128 -99 112 -51 -9 29 -95 159 -185 281 -89 120 -133 203 -195 368
-24 64 -57 150 -74 191 -33 80 -35 84 -23 78 4 -3 38 -23 75 -46z m-1143 -307
c193 -107 391 -226 492 -296 43 -29 153 -104 245 -167 208 -142 267 -187 366
-277 43 -40 109 -93 148 -120 44 -29 85 -68 110 -103 56 -78 58 -95 20 -135
-17 -17 -31 -40 -31 -50 0 -10 12 -62 27 -115 24 -84 28 -114 28 -236 0 -157
-13 -210 -64 -259 -60 -58 -147 -53 -259 14 -91 55 -133 54 -152 -6 -17 -49
20 -122 106 -213 68 -73 108 -101 142 -101 10 0 56 -18 102 -41 101 -48 111
-48 223 17 43 25 81 43 84 40 16 -16 -33 -181 -101 -341 -34 -79 -34 -134 -1
-173 15 -18 21 -33 16 -37 -16 -9 -206 -24 -318 -25 l-102 0 10 32 c27 96 -13
310 -71 373 -38 43 -54 66 -208 321 -77 126 -178 291 -226 367 -48 76 -135
231 -193 345 -58 114 -158 302 -224 417 -65 116 -121 224 -125 241 -5 27 0 34
58 79 79 62 168 145 168 157 0 14 -52 0 -183 -49 -65 -24 -125 -43 -134 -41
-20 4 -101 137 -125 205 -25 73 -24 140 3 169 21 22 21 25 5 48 -19 30 -21 46
-3 46 7 0 83 -39 167 -86z m-1282 -225 c2 -20 -12 -44 -58 -99 -33 -40 -65
-81 -71 -92 -31 -58 42 -64 150 -13 81 39 99 42 108 19 9 -24 -60 -89 -322
-299 -132 -106 -358 -291 -502 -411 -144 -121 -275 -227 -291 -236 -29 -17
-31 -17 -56 3 -14 11 -41 42 -58 67 -28 40 -32 54 -30 98 2 42 -1 55 -22 77
-21 23 -33 27 -80 27 -30 0 -57 3 -59 8 -3 4 8 39 24 78 17 42 32 106 38 153
11 100 33 136 129 208 248 188 345 222 706 253 71 6 145 18 164 26 19 8 71 48
114 90 83 79 111 89 116 43z m152 -459 c44 -22 80 -44 80 -48 0 -5 -33 -31
-72 -59 -85 -60 -143 -117 -157 -156 -9 -24 -8 -31 14 -53 30 -30 35 -29 159
32 95 47 185 78 212 72 16 -3 -525 -415 -810 -617 -156 -111 -203 -121 -140
-30 18 26 24 47 22 71 l-3 33 -125 1 c-125 1 -180 12 -180 37 0 24 464 418
760 646 80 61 148 111 153 111 4 0 43 -18 87 -40z m294 -386 c19 -7 20 -33 3
-55 -7 -8 -38 -34 -69 -57 -67 -49 -88 -77 -88 -115 0 -35 24 -82 45 -91 50
-19 95 -5 203 64 29 18 55 30 59 26 12 -11 -75 -92 -319 -298 -131 -109 -308
-263 -394 -341 -300 -273 -378 -334 -439 -344 -31 -5 -35 -2 -54 34 -12 25
-33 46 -54 56 -36 17 -59 39 -56 53 4 26 -5 46 -43 94 l-42 53 54 49 c251 225
671 547 1020 783 143 97 147 99 174 89z m6536 -45 c211 -65 281 -98 309 -144
11 -20 35 -44 53 -53 50 -27 78 -58 78 -88 0 -19 13 -40 44 -70 65 -62 75 -88
91 -240 8 -75 16 -139 19 -141 3 -3 10 15 16 38 6 24 15 53 19 64 8 18 10 17
24 -15 58 -136 1 -645 -94 -833 -17 -33 -59 -104 -94 -156 -34 -53 -94 -158
-133 -233 -75 -148 -98 -185 -146 -237 -63 -68 -124 -95 -250 -111 -180 -22
-538 -126 -706 -204 -52 -25 -98 -41 -102 -38 -4 4 -18 53 -32 109 -60 236
-149 421 -359 746 -100 155 -145 246 -154 312 -10 75 -19 80 -87 49 -44 -20
-60 -23 -66 -14 -28 46 106 333 220 469 99 117 196 151 335 116 102 -26 134
-44 170 -99 100 -151 211 -207 311 -160 42 20 49 46 29 103 -22 62 -19 93 16
179 63 159 86 300 58 355 -18 36 -72 87 -90 87 -10 0 -39 -18 -64 -40 -25 -22
-56 -40 -68 -40 -40 0 -85 36 -98 79 -23 79 10 126 114 160 77 26 398 98 442
100 17 1 105 -22 195 -50z m-6113 -364 c39 -20 64 -25 136 -26 48 -1 87 -3 87
-5 0 -2 -36 -22 -80 -44 -94 -47 -156 -100 -165 -139 -3 -16 -22 -47 -41 -69
-37 -44 -64 -99 -64 -133 0 -35 32 -90 64 -111 28 -18 44 -19 157 -14 69 3
134 8 145 12 30 12 -43 -73 -111 -128 -32 -26 -108 -73 -169 -105 -65 -34
-131 -77 -158 -104 -46 -43 -48 -48 -48 -101 0 -64 -9 -75 -88 -108 -80 -34
-123 -96 -108 -154 8 -32 45 -43 166 -50 109 -6 124 -16 114 -76 -15 -80 -41
-94 -205 -109 -114 -10 -181 -26 -402 -94 -139 -43 -177 -47 -177 -16 0 12 12
35 26 52 31 37 28 62 -27 221 -40 115 -49 189 -29 242 6 14 31 49 55 76 27 31
45 60 45 75 0 17 -27 52 -90 117 l-91 94 163 139 c413 353 617 506 748 560 70
29 87 29 147 -2z m2614 -743 c128 -98 176 -149 185 -196 9 -52 -3 -104 -29
-121 -20 -13 -172 -36 -395 -60 l-63 -7 6 28 c4 16 9 35 11 43 2 7 9 67 15
133 7 81 16 133 29 157 25 50 107 125 123 113 7 -5 60 -45 118 -90z m504 -241
c8 -26 -4 -51 -25 -51 -10 0 -21 7 -24 16 -10 25 3 54 24 54 10 0 21 -8 25
-19z m1435 -178 c0 -25 -57 -93 -79 -93 -24 0 1 64 41 107 25 26 38 22 38 -14z
m137 -190 c132 -187 211 -340 277 -534 37 -109 71 -296 61 -330 -4 -12 -16
-19 -30 -19 -35 0 -99 -27 -184 -79 -80 -48 -157 -65 -177 -40 -6 8 -35 68
-64 134 -30 66 -121 253 -202 415 -94 186 -148 304 -146 319 4 36 45 60 133
77 101 21 145 43 207 105 27 27 51 49 53 49 2 0 34 -44 72 -97z m-865 35 c28
-23 69 -86 87 -134 l18 -47 -38 -81 c-42 -91 -159 -432 -159 -465 0 -12 -14
-58 -31 -103 -35 -90 -225 -527 -233 -535 -2 -3 -38 29 -78 71 -95 99 -121
101 -216 14 -53 -49 -78 -58 -155 -58 -90 -1 -142 -14 -189 -46 -34 -24 -51
-29 -103 -29 -79 0 -105 -17 -262 -178 -129 -133 -182 -195 -207 -244 -21 -42
-20 -60 4 -68 23 -7 54 7 93 43 23 22 31 24 45 14 58 -41 107 -39 173 7 32 23
70 37 139 51 52 11 109 20 126 20 54 0 127 28 183 70 43 32 61 40 96 40 24 0
55 -4 69 -10 23 -8 25 -12 15 -34 -14 -30 -149 -131 -432 -326 -389 -267 -663
-437 -852 -530 -185 -92 -385 -174 -385 -159 0 4 23 27 51 51 80 68 164 173
203 253 36 76 255 374 400 545 44 52 163 188 263 301 191 215 295 340 312 374
5 11 23 50 40 88 16 37 71 137 121 222 170 289 188 342 197 586 l6 167 236 51
c444 98 440 97 463 79z m-1785 -60 c7 -6 13 -22 13 -37 0 -42 -47 -172 -103
-282 -57 -114 -84 -139 -73 -70 15 97 -16 106 -339 105 -330 -1 -593 -27 -903
-90 -153 -31 -234 -55 -335 -101 -84 -37 -139 -41 -145 -11 -9 46 241 147 664
268 420 121 806 204 1094 234 48 5 111 -3 127 -16z m518 -58 c72 -11 193 -23
269 -27 l139 -6 -6 -176 c-4 -143 -9 -188 -27 -241 -25 -76 -119 -258 -200
-386 -115 -183 -273 -367 -327 -380 -16 -4 -66 1 -118 11 -49 10 -114 19 -143
19 -51 1 -55 4 -81 41 -24 35 -32 40 -71 43 -33 2 -54 -4 -79 -20 -68 -46 -75
-48 -118 -42 -28 4 -56 1 -86 -11 -51 -19 -87 -13 -87 15 0 10 48 83 106 162
170 228 314 450 384 588 16 32 47 111 69 175 46 135 59 159 104 181 17 9 46
27 62 39 25 20 41 26 75 34 3 0 64 -8 135 -19z m1517 -217 c9 -16 33 -68 53
-118 20 -49 73 -161 117 -249 86 -172 91 -200 46 -225 -25 -14 -32 -13 -118
22 -69 28 -96 35 -110 27 -10 -5 -50 -53 -90 -106 -39 -52 -74 -94 -76 -91 -2
2 10 48 27 103 29 91 33 115 40 289 7 179 16 237 48 320 13 32 30 55 40 55 4
0 14 -12 23 -27z m-3464 -336 c6 -7 20 -38 32 -69 44 -119 81 -128 240 -60
119 51 171 64 240 60 l54 -3 -43 -29 c-24 -15 -64 -46 -88 -69 -103 -95 -96
-163 20 -203 26 -9 47 -19 47 -23 0 -33 -120 -92 -233 -115 -100 -21 -101 -21
-142 15 l-36 32 -47 -19 c-26 -9 -59 -29 -73 -43 -24 -24 -26 -35 -32 -141 -3
-63 -11 -130 -18 -148 -14 -41 -5 -92 22 -120 24 -27 78 -29 145 -6 25 8 49
13 52 9 4 -3 -54 -66 -128 -138 -142 -139 -248 -233 -255 -226 -2 2 10 35 27
73 107 243 113 772 13 1069 l-25 72 23 21 c25 24 141 73 173 74 12 0 26 -6 32
-13z m-1578 -242 c0 -9 -7 -29 -15 -45 -43 -83 -23 -267 40 -373 20 -33 34
-61 33 -62 -2 -1 -50 -7 -108 -13 -128 -12 -186 -31 -217 -71 -15 -19 -29 -28
-39 -24 -32 12 -74 129 -74 206 0 56 11 59 57 15 l33 -32 -6 90 c-5 59 -3 103
5 126 17 51 82 111 170 157 81 43 121 51 121 26z m5427 -257 l27 -70 -29 -25
c-41 -35 -366 -238 -434 -272 -31 -16 -67 -31 -81 -34 -14 -4 -57 -33 -97 -65
-74 -60 -218 -142 -247 -142 -20 0 -18 7 21 110 40 103 183 390 194 390 7 0 9
-10 5 -24 -8 -32 11 -84 34 -91 27 -9 57 10 115 72 35 36 59 53 75 53 26 0 47
12 119 66 28 22 61 35 104 43 39 7 77 21 102 39 22 16 45 27 52 25 7 -3 24
-36 40 -75z m619 -23 c-10 -27 -117 -62 -116 -37 1 8 40 38 78 58 29 15 48 5
38 -21z m-236 -144 c0 -13 -88 -56 -97 -47 -12 12 45 56 73 56 13 0 24 -4 24
-9z m-2917 -320 c37 -37 -347 -311 -838 -597 -207 -120 -345 -207 -460 -289
-52 -38 -326 -176 -432 -218 -67 -27 -83 -23 -83 23 0 54 158 247 410 500 85
85 193 186 240 223 111 89 242 153 336 166 41 5 93 20 124 36 47 24 61 27 114
21 66 -6 76 -3 172 62 41 27 55 32 86 27 28 -5 52 0 105 23 37 17 79 32 93 35
39 8 120 1 133 -12z m-2759 -127 c19 -18 19 -27 6 -76 -13 -46 -43 -68 -93
-68 -46 0 -77 15 -77 37 0 27 47 79 92 102 51 25 52 25 72 5z m217 -89 c48
-64 51 -92 15 -140 -46 -60 -90 -68 -102 -18 -16 63 9 213 36 213 5 0 28 -25
51 -55z m673 -923 c11 -19 -30 -56 -97 -88 -39 -18 -73 -31 -76 -29 -8 9 34
58 78 93 41 31 84 42 95 24z"/>
<path d="M5009 10764 c-16 -20 31 -116 87 -176 55 -59 134 -221 189 -387 59
-178 159 -309 252 -327 27 -5 37 -1 64 25 30 30 31 35 27 94 -7 119 -123 311
-329 545 -97 110 -225 226 -259 235 -11 3 -24 -1 -31 -9z"/>
<path d="M12102 10435 c-186 -167 -901 -1034 -1214 -1470 -52 -73 -119 -185
-110 -185 17 0 210 226 612 720 271 331 467 564 611 725 120 133 189 222 189
242 0 26 -39 12 -88 -32z"/>
</g>
</svg>
