<?xml version="1.0" standalone="no"?>
<!DOCTYPE svg PUBLIC "-//W3C//DTD SVG 20010904//EN"
 "http://www.w3.org/TR/2001/REC-SVG-20010904/DTD/svg10.dtd">
<svg version="1.0" xmlns="http://www.w3.org/2000/svg"
 width="1038.000000pt" height="1280.000000pt" viewBox="0 0 1038.000000 1280.000000"
 preserveAspectRatio="xMidYMid meet">
<metadata>
Created by potrace 1.15, written by Peter Selinger 2001-2017
</metadata>
<g transform="translate(0.000000,1280.000000) scale(0.100000,-0.100000)"
fill="green" stroke="none">
<path d="M5220 12542 c0 -4 65 -67 143 -139 316 -290 436 -485 437 -713 1
-257 -171 -460 -460 -543 -47 -14 -104 -28 -127 -32 l-42 -7 -19 63 c-18 59
-22 64 -58 74 -27 7 -48 23 -69 52 -20 28 -35 40 -45 36 -44 -18 -103 -14
-176 13 -63 23 -78 33 -90 58 -8 17 -43 148 -78 291 -36 144 -69 272 -74 285
-10 26 -20 -1 -132 -357 -33 -107 -56 -163 -65 -163 -7 0 -19 -16 -25 -35 -9
-27 -17 -35 -35 -35 -30 0 -43 17 -51 68 -8 50 -14 48 -21 -5 -8 -56 -49 -132
-78 -143 -16 -6 -34 -6 -51 0 -41 16 -48 13 -85 -37 -62 -84 -69 -98 -69 -135
0 -44 6 -43 -138 -27 -369 40 -635 203 -740 452 -22 53 -26 77 -26 167 -1 115
11 164 69 280 50 100 137 210 289 368 76 78 133 142 125 142 -19 0 -155 -77
-254 -144 -289 -196 -445 -452 -445 -731 0 -303 149 -574 411 -747 164 -109
324 -177 475 -204 86 -16 95 -19 92 -38 -2 -17 -11 -22 -48 -24 -56 -4 -147
13 -203 38 -51 24 -97 26 -97 5 0 -8 13 -30 30 -48 26 -31 116 -197 108 -201
-12 -6 -79 -30 -110 -39 -31 -9 -38 -16 -40 -41 -4 -41 -36 -56 -119 -56 -51
0 -72 5 -92 20 -34 27 -61 25 -85 -5 -25 -31 -72 -33 -127 -5 l-39 20 -54 -25
-53 -25 -67 34 c-77 39 -304 126 -327 126 -12 0 -14 -7 -9 -27 15 -66 69 -223
95 -282 l29 -65 -26 -27 c-19 -20 -28 -42 -33 -86 -5 -43 -16 -71 -42 -108
-38 -54 -59 -107 -59 -147 0 -14 -7 -39 -15 -54 -8 -16 -15 -39 -15 -52 0 -14
-9 -27 -25 -34 -39 -18 -27 -39 45 -80 50 -28 87 -41 160 -53 52 -8 109 -17
125 -20 l30 -5 0 -117 c0 -115 2 -123 51 -278 45 -138 75 -268 78 -340 1 -14
-6 -21 -24 -23 -42 -6 -62 -32 -57 -72 2 -19 0 -46 -6 -60 -9 -24 -28 -176
-28 -230 0 -56 2 -86 7 -103 6 -20 96 -67 127 -67 11 0 21 -9 24 -21 4 -12 17
-42 30 -67 13 -24 22 -46 21 -47 -2 -2 -42 6 -90 17 l-86 20 -18 66 c-18 65
-54 122 -79 122 -7 0 -27 -11 -43 -25 -38 -32 -93 -55 -131 -55 -34 0 -81 -19
-81 -33 0 -5 -42 -53 -92 -106 -51 -53 -114 -122 -141 -153 -26 -32 -60 -63
-75 -70 -15 -7 -28 -23 -30 -35 -2 -12 -63 -77 -141 -151 -75 -72 -153 -153
-172 -180 -19 -28 -44 -55 -56 -61 -12 -6 -25 -22 -29 -35 -3 -14 -14 -28 -24
-31 -9 -3 -24 -22 -32 -43 -9 -22 -30 -47 -54 -63 -35 -24 -46 -26 -111 -22
l-72 5 -11 57 c-7 31 -47 180 -90 331 -80 282 -366 1384 -484 1865 -37 149
-125 466 -198 705 -105 350 -161 514 -285 840 -85 223 -159 409 -164 414 -5 5
-12 6 -16 3 -4 -4 10 -197 31 -430 33 -368 47 -479 112 -867 40 -245 103 -580
139 -745 122 -552 344 -1624 395 -1904 27 -152 54 -292 60 -311 5 -18 9 -34 7
-34 -1 -1 -41 -21 -90 -45 -88 -43 -117 -73 -117 -119 0 -11 -7 -22 -15 -26
-8 -3 -15 -16 -15 -29 0 -22 -6 -25 -69 -36 -39 -6 -104 -11 -145 -11 -62 0
-77 -3 -85 -18 -5 -9 -35 -26 -68 -37 l-58 -20 35 -6 c24 -4 8 -7 -47 -8 -60
-1 -84 -5 -90 -15 -8 -15 -93 -55 -121 -57 -9 -1 16 -5 57 -9 40 -5 77 -13 81
-20 5 -9 25 -6 76 10 52 16 401 79 445 80 4 0 10 -12 13 -26 7 -26 8 -26 64
-19 l57 7 -21 -24 c-20 -21 -23 -57 -9 -104 5 -16 177 11 226 36 22 12 49 18
59 15 18 -6 17 -8 -6 -42 -44 -65 -22 -148 50 -192 18 -11 40 -29 50 -40 20
-22 26 -18 -72 -42 -56 -14 -91 -39 -54 -39 11 0 44 5 72 12 59 14 70 6 70
-49 0 -40 30 -73 65 -73 25 0 65 -31 65 -50 0 -14 75 -34 102 -27 36 9 78 46
78 67 0 14 20 28 67 51 44 21 95 58 143 103 41 39 96 89 122 109 80 65 135
175 96 190 -8 3 -2 9 13 17 24 11 31 8 94 -40 42 -32 75 -50 89 -48 19 3 21 8
18 51 -4 47 -2 51 46 97 53 51 217 140 258 140 13 0 54 16 91 36 53 28 74 34
101 29 46 -9 68 1 82 35 13 32 84 90 110 90 14 0 96 39 234 114 27 14 59 26
71 26 23 0 55 28 55 49 0 23 48 61 78 61 40 0 180 102 188 137 5 17 1 38 -10
58 -16 30 -16 35 -3 62 9 16 23 36 32 43 21 18 45 64 45 88 0 10 6 27 14 37
12 17 15 15 39 -26 14 -24 33 -69 41 -100 18 -69 40 -115 73 -151 14 -14 23
-31 19 -36 -3 -5 6 -24 20 -43 26 -36 27 -78 1 -124 -6 -11 -10 -23 -10 -26 1
-4 -9 -17 -22 -29 -34 -32 -32 -44 15 -81 49 -40 70 -95 52 -141 -9 -24 -8
-32 7 -47 17 -17 16 -19 -16 -39 -18 -12 -44 -44 -58 -71 -13 -27 -37 -59 -53
-70 -31 -21 -39 -38 -68 -134 -16 -55 -16 -62 -1 -111 10 -29 17 -55 17 -58 0
-4 -22 2 -50 13 -27 10 -56 16 -64 13 -30 -12 -96 -187 -96 -255 0 -25 -7 -50
-16 -60 -15 -17 -15 -22 2 -68 17 -48 17 -51 -1 -91 -10 -23 -27 -45 -36 -51
-10 -5 -21 -25 -25 -43 -7 -40 -12 -42 -142 -52 -51 -3 -94 -10 -97 -14 -2 -4
44 -30 104 -57 l108 -50 7 -43 c4 -23 18 -57 33 -76 23 -31 25 -40 19 -89 -4
-39 -2 -66 9 -91 8 -20 15 -60 15 -89 0 -53 -16 -86 -76 -158 -23 -27 -23 -29
-8 -65 34 -78 37 -74 -88 -134 -62 -31 -133 -65 -158 -76 l-45 -20 40 -10 c22
-5 97 -24 167 -42 l127 -33 6 -38 c5 -30 19 -49 69 -92 34 -30 71 -72 81 -93
11 -22 31 -54 44 -72 18 -25 24 -45 23 -75 -2 -47 3 -59 34 -75 24 -13 107
-149 99 -162 -3 -5 0 -20 7 -32 6 -13 15 -54 19 -91 9 -95 20 -104 105 -90 36
6 67 13 69 15 2 2 9 26 16 53 6 28 13 55 15 62 2 9 14 8 48 -3 37 -13 47 -22
56 -50 7 -20 10 -36 8 -38 -49 -34 -87 -71 -90 -89 -4 -22 30 -125 59 -182 9
-16 19 -37 23 -45 4 -8 16 -19 28 -25 15 -6 22 -19 22 -37 0 -16 8 -33 21 -41
13 -10 19 -23 17 -39 -3 -20 -15 -26 -96 -48 -51 -13 -91 -29 -89 -35 4 -13
78 -50 144 -71 43 -14 53 -22 58 -46 4 -15 18 -37 32 -48 39 -31 47 -97 16
-147 -12 -21 -23 -41 -23 -45 0 -4 15 -10 33 -13 28 -6 32 -10 35 -42 1 -19
12 -49 24 -65 20 -29 20 -32 5 -58 -9 -15 -14 -30 -10 -34 3 -3 -3 -6 -15 -6
-26 0 -38 -18 -23 -33 6 -6 11 -19 11 -28 0 -10 9 -33 20 -52 11 -18 24 -62
29 -97 7 -54 5 -72 -10 -107 -10 -24 -15 -43 -12 -43 4 0 -4 -11 -16 -24 -28
-30 -22 -42 29 -57 31 -9 40 -17 40 -34 0 -11 7 -30 15 -41 8 -10 15 -38 15
-61 0 -23 4 -45 10 -48 6 -3 10 -17 10 -30 0 -13 5 -36 12 -50 9 -21 9 -31 0
-46 -7 -11 -10 -24 -7 -29 3 -4 1 -19 -3 -32 -6 -15 -4 -34 4 -53 7 -16 13
-52 14 -80 0 -43 -7 -60 -50 -127 -27 -43 -54 -97 -61 -120 -16 -61 -50 -125
-101 -188 -24 -30 -65 -81 -91 -114 -42 -52 -46 -62 -41 -95 5 -30 -1 -46 -35
-99 -61 -93 -73 -127 -81 -232 -6 -74 -5 -101 6 -122 18 -34 62 -58 108 -58
28 0 42 -8 75 -42 39 -41 43 -43 103 -44 37 0 63 -5 66 -12 2 -7 -8 -37 -22
-68 -15 -32 -26 -75 -26 -98 0 -35 6 -48 38 -79 71 -70 299 -145 537 -177 50
-7 114 -16 143 -20 63 -9 139 5 167 30 11 10 30 23 42 29 13 6 30 26 39 43 14
28 15 41 4 100 -11 63 -10 71 10 113 l22 45 -20 58 c-12 31 -28 76 -36 99 -19
53 -23 142 -7 172 23 41 5 108 -47 175 -57 73 -70 138 -47 229 8 32 15 74 15
93 0 29 3 34 23 34 13 0 51 20 85 45 56 41 62 49 62 81 0 19 5 45 11 56 6 11
20 56 30 100 22 90 46 143 83 177 14 14 26 33 26 43 0 21 25 32 95 42 77 11
127 26 123 38 -2 5 -44 31 -93 56 -90 47 -90 47 -97 92 -4 25 -10 60 -14 77
-5 28 -2 37 26 63 27 25 31 36 27 63 -3 20 2 46 14 69 11 21 19 51 19 68 0 40
18 73 73 140 l45 54 -19 48 c-10 27 -19 61 -19 77 0 24 7 30 54 50 85 35 88
46 22 75 -31 14 -56 30 -56 35 0 6 18 45 39 87 37 71 43 77 99 104 93 44 91
51 -20 65 -36 5 -48 11 -48 23 0 9 -7 25 -15 36 -8 10 -17 39 -21 65 -11 77
-47 136 -94 155 -22 9 -49 16 -59 16 -14 0 -24 14 -37 53 -9 28 -29 70 -43 92
-51 77 -71 143 -71 235 0 47 3 108 6 137 l7 51 51 -5 c49 -5 54 -4 79 27 19
22 27 43 27 69 l0 38 78 -76 c107 -105 179 -153 240 -159 28 -2 52 0 56 6 3 6
-3 30 -13 55 -19 44 -33 130 -52 322 -11 111 -25 176 -70 313 l-31 92 41 158
c22 86 48 188 56 226 9 39 27 96 41 128 17 36 24 66 20 81 -3 13 7 75 23 138
47 184 48 245 11 574 -13 119 -38 245 -54 270 -7 11 -25 56 -41 100 -29 82
-70 133 -166 206 -51 39 -82 109 -85 194 -1 38 -3 73 -3 77 -1 3 -23 14 -51
23 l-50 17 0 48 c0 43 4 52 41 89 36 36 41 45 35 73 -5 24 0 38 19 64 14 18
25 37 25 42 0 5 9 17 20 27 15 14 17 22 9 37 -8 16 -5 27 15 57 14 20 26 42
26 49 0 7 19 31 41 54 23 24 69 75 102 113 63 74 173 177 209 196 18 10 24 8
35 -7 35 -46 34 -50 -17 -107 -26 -31 -52 -67 -55 -79 -4 -13 -12 -29 -18 -37
-14 -17 -38 -81 -39 -101 0 -8 -5 -30 -10 -49 -9 -28 -7 -41 7 -67 16 -31 17
-36 1 -74 -28 -69 -21 -164 20 -293 37 -115 69 -181 104 -212 10 -9 22 -30 25
-46 4 -16 17 -36 30 -45 24 -16 120 -179 149 -254 10 -24 20 -63 22 -85 3 -22
10 -45 16 -52 6 -7 7 -32 3 -61 l-6 -49 48 -17 c26 -10 62 -21 78 -25 36 -8
36 -15 13 -188 -16 -117 -26 -139 -87 -197 -17 -17 -31 -36 -31 -43 0 -16 -9
-16 -40 2 -35 20 -50 18 -50 -6 0 -25 16 -56 43 -86 l20 -23 -26 -24 c-15 -14
-27 -33 -27 -43 0 -20 -49 -128 -83 -183 -12 -19 -23 -39 -24 -45 -1 -5 -18
-54 -38 -108 -39 -109 -45 -167 -19 -167 9 0 55 41 103 91 l86 90 37 -15 36
-16 -15 -62 c-11 -43 -16 -110 -16 -208 0 -131 3 -152 27 -220 33 -93 81 -166
141 -216 41 -33 46 -41 41 -68 -3 -17 -6 -137 -7 -267 l-2 -236 -26 6 c-31 9
-32 16 -62 231 l-22 165 -49 52 c-26 28 -48 60 -48 69 0 10 -3 15 -6 12 -3 -4
-5 -133 -4 -289 1 -303 6 -349 58 -499 21 -62 35 -85 81 -130 l56 -55 0 -90
c0 -49 4 -101 9 -114 8 -23 7 -23 -38 -17 -26 4 -61 14 -79 21 -34 14 -114 86
-134 120 -21 36 -3 -79 34 -215 60 -222 129 -339 218 -367 28 -9 31 -15 41
-75 6 -36 21 -82 34 -102 20 -33 21 -39 8 -52 -8 -8 -43 -18 -79 -22 -75 -9
-134 10 -186 60 l-32 31 19 -62 c35 -117 129 -290 198 -362 68 -73 106 -89
170 -70 31 9 33 8 46 -23 7 -18 30 -49 50 -68 36 -35 36 -35 21 -70 -18 -44
-94 -113 -141 -128 -36 -12 -105 -10 -138 5 -18 8 -18 7 0 -21 42 -67 113
-139 180 -184 62 -43 79 -49 141 -55 76 -8 102 0 162 51 l32 27 40 -33 c25
-19 63 -37 97 -45 31 -8 58 -18 60 -24 2 -6 14 -26 26 -44 14 -21 20 -40 16
-48 -4 -8 -11 -25 -15 -39 l-7 -25 29 28 c49 45 55 38 47 -58 -4 -47 -4 -85
-1 -85 9 0 53 89 61 123 9 37 28 30 39 -14 8 -30 10 -32 18 -14 4 11 8 29 8
40 2 30 54 55 117 55 l54 0 0 -47 c0 -70 25 -200 51 -263 53 -131 136 -200
239 -200 82 0 135 26 202 99 88 95 155 254 176 416 l7 59 26 -50 c18 -35 25
-61 22 -85 l-4 -34 25 30 26 30 0 -67 c0 -38 4 -68 8 -68 11 0 42 66 42 90 0
11 5 20 10 20 6 0 10 -8 10 -17 0 -14 2 -15 9 -4 16 25 60 -17 62 -59 3 -61 4
-65 11 -76 5 -7 3 -35 -2 -64 -6 -29 -10 -64 -10 -79 1 -24 2 -25 14 -8 17 22
46 12 46 -16 0 -20 0 -20 15 -1 17 21 17 26 -4 -81 -5 -27 -12 -70 -15 -95 -4
-42 -4 -44 10 -25 9 11 27 42 40 68 26 51 44 56 55 16 5 -21 8 -16 24 32 17
53 19 55 48 51 55 -8 75 52 37 113 -17 28 -18 34 -5 39 8 3 27 1 41 -4 60 -23
176 15 235 77 112 116 136 310 65 515 -21 60 -22 69 -8 63 9 -4 24 -9 33 -12
9 -3 22 -17 30 -31 l12 -27 7 30 6 30 16 -30 c9 -16 28 -41 43 -55 l27 -25 -8
30 c-3 17 -13 45 -20 64 -16 39 -12 50 11 31 21 -18 30 -6 13 18 -20 29 -11
110 14 123 14 7 23 7 34 -2 11 -9 14 -9 14 1 0 9 7 7 22 -6 l21 -19 -8 35 c-4
19 -10 53 -14 75 -4 22 -13 50 -19 62 -14 25 -16 63 -3 63 34 0 151 -215 151
-279 1 -25 1 -25 16 -6 8 11 26 56 39 100 31 107 21 186 -33 248 -34 38 -1 24
82 -35 48 -35 104 -74 124 -87 l37 -24 -20 24 c-10 13 -44 50 -75 83 l-55 58
50 -36 c28 -20 77 -55 110 -77 59 -40 59 -39 -40 58 -55 54 -135 131 -179 171
-78 72 -78 72 -66 103 9 21 18 28 29 24 87 -32 276 -197 315 -274 l23 -45 7
32 c19 86 -41 309 -113 415 -58 86 -122 130 -283 192 -83 32 -98 41 -98 60 0
20 4 22 43 19 264 -21 430 -50 560 -99 37 -14 76 -25 86 -25 10 0 45 -13 77
-30 32 -16 60 -30 61 -30 1 0 -5 13 -13 29 -26 52 -185 211 -272 271 -83 59
-230 124 -336 151 l-49 12 24 19 24 19 -22 -5 c-13 -3 -32 -9 -44 -12 -11 -3
-34 0 -50 6 -30 13 -30 17 -12 68 8 19 -8 14 -33 -9 -21 -20 -27 -21 -68 -9
-43 12 -45 13 -66 81 -13 38 -26 69 -30 69 -4 0 -14 -28 -22 -62 -14 -62 -15
-63 -52 -66 -30 -3 -41 2 -57 22 -11 15 -30 31 -41 37 -18 10 -20 9 -14 -6 20
-52 19 -65 -5 -65 -13 0 -43 11 -66 25 -45 25 -54 23 -28 -5 15 -16 6 -18
-122 -22 -120 -5 -147 -9 -208 -33 -101 -40 -229 -137 -261 -196 l-13 -27 42
12 c30 9 94 10 227 5 184 -7 327 -31 511 -85 81 -24 58 -54 -41 -54 -87 0
-294 31 -338 50 -25 11 -47 19 -49 16 -5 -5 80 -60 177 -116 126 -72 274 -163
289 -176 8 -8 -34 11 -95 41 -115 57 -172 73 -124 34 14 -11 55 -43 93 -70 37
-28 67 -52 67 -54 0 -2 -25 7 -55 20 -30 14 -55 23 -55 20 0 -2 34 -29 75 -60
41 -30 75 -58 75 -61 0 -7 -16 3 -59 35 l-34 26 13 -25 c7 -14 26 -41 41 -61
16 -20 29 -46 29 -58 0 -11 13 -30 30 -43 30 -22 80 -96 80 -117 0 -20 -24
-11 -48 17 l-23 27 7 -25 6 -25 -26 24 c-30 28 -33 17 -11 -37 9 -20 13 -47
10 -60 -3 -14 0 -34 8 -46 24 -37 28 -72 11 -87 -14 -11 -19 -9 -35 11 l-19
25 0 -24 c0 -22 -3 -20 -40 20 -43 48 -48 44 -25 -21 20 -57 19 -67 -7 -44
-21 19 -21 19 -14 -6 9 -32 9 -35 8 -89 l-2 -45 -29 46 c-74 116 -208 229
-272 228 -93 -2 -136 -151 -141 -488 -2 -125 -4 -152 -16 -147 -7 3 -22 5 -33
5 -11 0 -19 7 -19 18 0 9 -9 32 -20 50 -17 28 -19 39 -11 69 l10 36 -27 -27
c-16 -14 -32 -26 -36 -26 -4 0 -7 19 -6 43 2 23 2 58 1 77 l-3 35 -24 -50
c-13 -27 -24 -60 -24 -72 0 -31 -16 -29 -24 2 -8 32 -26 23 -26 -13 -1 -16
-15 -43 -35 -66 l-35 -39 -1 29 c-2 79 -28 213 -54 275 -54 133 -140 209 -236
209 -121 0 -227 -92 -303 -264 -27 -62 -66 -191 -66 -222 0 -39 -13 -46 -63
-33 -26 6 -47 17 -47 24 0 7 -9 23 -19 37 -16 20 -18 32 -11 61 9 41 2 48 -18
17 -7 -11 -19 -20 -27 -20 -11 0 -15 17 -17 72 l-3 73 -30 -62 c-16 -35 -33
-63 -37 -63 -3 0 -10 15 -14 32 l-7 33 -12 -28 -11 -27 -35 36 c-18 19 -55 49
-81 66 -52 33 -53 34 -37 75 6 15 14 66 18 113 7 74 5 101 -19 210 -15 69 -31
145 -35 170 -8 53 -24 88 -25 55 0 -32 -66 -180 -106 -241 -20 -30 -37 -54
-39 -54 -2 0 -15 20 -29 45 l-25 45 28 58 c16 31 35 80 44 107 20 63 37 237
37 369 -1 98 -1 100 -17 71 -37 -69 -157 -195 -185 -195 -5 0 -8 15 -9 33 0
17 -6 50 -13 72 -11 39 -11 40 39 107 32 43 59 92 73 135 21 67 64 258 76 340
l6 41 -58 -57 c-60 -61 -97 -84 -147 -95 l-30 -6 1 90 2 90 43 33 c52 39 107
134 144 252 21 65 29 126 45 330 11 138 20 264 20 280 l0 30 -19 -30 c-10 -17
-35 -44 -55 -60 -36 -29 -37 -33 -71 -195 -19 -91 -37 -175 -40 -187 -4 -17
-13 -23 -34 -23 -28 0 -28 0 -21 47 5 27 11 148 15 269 l7 222 38 21 c55 31
113 105 145 185 22 57 28 91 32 187 8 161 -18 310 -83 481 -18 47 -18 48 4 71
15 16 22 36 22 65 0 41 1 41 49 56 120 36 151 77 117 158 -11 25 -13 56 -9
111 7 92 -10 186 -44 244 -18 31 -23 51 -18 71 3 16 0 42 -8 61 -10 23 -12 45
-6 74 20 99 37 244 32 269 -3 17 3 41 18 67 22 40 22 41 4 75 -18 33 -18 36 4
154 17 91 21 141 17 208 -3 49 -10 186 -17 304 -11 213 -11 215 -39 246 -24
28 -27 38 -23 77 5 40 3 46 -18 57 -13 7 -46 27 -74 46 -38 26 -65 35 -113 40
-59 7 -65 10 -98 49 -38 47 -43 81 -19 138 8 20 15 61 15 90 0 90 7 109 55
138 36 23 43 33 47 65 4 30 1 44 -15 61 -13 15 -18 30 -13 46 4 17 -1 33 -15
51 -11 14 -17 31 -14 36 4 6 1 18 -6 27 -7 8 -12 30 -10 49 1 21 -6 48 -22 76
-14 24 -28 59 -31 78 -7 39 14 159 39 230 9 25 14 54 11 64 -3 11 11 60 30
109 45 114 59 227 40 310 l-13 57 90 46 c108 55 183 104 255 169 82 74 89 110
26 140 -20 9 -38 24 -40 33 -3 9 -10 25 -15 34 -5 10 -9 33 -9 53 0 28 -5 37
-30 50 -16 9 -30 22 -30 31 0 8 -16 38 -35 67 -24 36 -35 63 -35 88 0 30 -7
43 -35 68 l-36 31 25 82 c23 77 46 184 61 286 6 35 4 42 -10 42 -22 0 -215
-103 -325 -173 l-85 -55 -31 19 c-37 22 -72 24 -98 4 -10 -8 -41 -22 -67 -30
-48 -16 -49 -16 -81 8 l-32 26 -40 -24 c-52 -29 -146 -49 -200 -41 -32 5 -46
14 -64 41 -12 19 -31 35 -41 35 -10 0 -37 7 -60 15 -23 8 -48 12 -56 9 -8 -4
-22 -32 -31 -63 -9 -31 -29 -74 -44 -96 -28 -40 -28 -42 -29 -215 -1 -253 8
-225 -77 -226 l-73 -2 -21 92 c-12 50 -26 111 -31 135 -5 25 -15 52 -23 60
-12 15 -29 61 -31 86 0 6 -10 22 -23 35 -26 28 -27 36 -8 43 24 10 143 200
160 255 8 29 22 62 30 74 20 28 20 57 2 64 -8 3 -54 -8 -103 -24 -122 -42
-179 -49 -192 -24 -9 17 -2 20 77 36 209 43 488 232 600 405 144 223 171 525
71 778 -67 169 -225 356 -404 479 -130 89 -355 207 -355 186z m1100 -7227 c-7
-9 -15 -13 -18 -10 -3 2 1 11 8 20 7 9 15 13 18 10 3 -2 -1 -11 -8 -20z m419
-77 c55 -131 88 -355 69 -476 -12 -80 -45 -156 -86 -199 -35 -38 -52 -41 -76
-14 -28 30 -63 34 -109 12 -38 -19 -41 -19 -63 -3 -30 23 -78 105 -99 171 -22
66 -25 236 -6 331 l12 66 97 2 c94 2 142 17 142 43 0 15 79 109 91 109 5 0 18
-19 28 -42z m-115 -978 c-4 -69 -10 -156 -14 -195 -7 -64 -7 -66 -9 -20 -3
132 -14 215 -27 215 -8 0 -14 -1 -14 -2 -1 -30 -31 -243 -35 -246 -4 -5 -1
253 4 358 1 11 13 15 51 15 l51 0 -7 -125z m-26 -575 c2 -27 1 -59 -3 -72 -5
-21 -11 -24 -43 -21 -35 3 -37 5 -40 43 -2 21 -1 54 3 71 5 31 8 33 43 30 37
-2 37 -2 40 -51z m-3 -286 c4 -12 4 -45 0 -75 -6 -51 -8 -54 -35 -54 -16 0
-35 -3 -43 -6 -17 -6 -26 47 -19 114 l5 42 43 0 c35 0 44 -4 49 -21z m2553
-259 c-6 -22 -14 -40 -19 -40 -5 0 -23 13 -41 30 -28 25 -31 31 -18 40 8 5 31
10 51 10 l37 0 -10 -40z m178 -49 c-13 -20 -26 -11 -26 16 0 25 1 26 16 11 9
-9 13 -21 10 -27z m-2724 4 c4 -5 8 -39 8 -75 l0 -65 -39 -1 c-37 -2 -39 0
-45 35 -7 42 -8 106 -2 112 9 8 71 4 78 -6z m39 -335 c4 -14 7 -41 8 -60 1
-32 -3 -38 -34 -52 -35 -16 -36 -16 -49 11 -8 14 -16 47 -17 71 -3 43 -2 45
26 51 46 10 59 6 66 -21z m78 -304 c15 -60 14 -99 -1 -93 -7 2 -26 0 -41 -4
-32 -9 -39 2 -52 79 -6 39 -5 42 17 42 12 0 30 5 38 10 24 15 27 13 39 -34z
m81 -288 l19 -43 -24 -25 -25 -25 -24 25 c-39 40 -42 72 -9 92 39 24 42 23 63
-24z m1985 -122 c30 -29 67 -75 84 -101 l30 -47 -21 -29 c-18 -23 -19 -31 -8
-44 7 -8 27 -15 44 -15 29 0 34 -4 49 -47 56 -161 40 -318 -42 -406 -60 -66
-112 -72 -165 -22 -21 19 -41 35 -45 35 -4 0 -15 16 -25 36 -15 32 -15 39 -3
53 43 49 40 97 -9 119 -32 15 -38 58 -30 210 12 222 32 312 68 312 11 0 44
-24 73 -54z m-808 -54 c54 -30 110 -163 120 -287 l5 -70 -31 -12 c-41 -15 -42
-48 -1 -71 36 -21 37 -36 10 -143 -51 -197 -139 -319 -231 -319 -84 0 -145 84
-175 238 -22 117 -21 122 27 122 47 0 74 12 89 41 23 43 -23 89 -90 89 -27 0
-30 3 -30 31 0 88 82 288 142 348 58 58 101 67 165 33z m1103 14 c0 -15 -18
-31 -26 -23 -7 7 7 37 17 37 5 0 9 -6 9 -14z m-2125 -36 l16 -30 -32 0 c-17 0
-44 -9 -60 -21 -16 -11 -29 -17 -29 -12 0 4 -3 18 -6 31 -6 19 -3 22 25 22 20
0 35 7 43 20 17 27 25 25 43 -10z m2195 -23 c0 -17 -38 -53 -46 -44 -4 3 1 13
10 22 9 9 16 21 16 26 0 5 5 9 10 9 6 0 10 -6 10 -13z m-2043 -209 c29 -24 52
-46 52 -49 1 -4 -18 -3 -41 3 -48 10 -99 53 -91 74 8 23 26 16 80 -28z m253
-98 c0 -15 -5 -12 -26 11 -19 22 -19 22 4 10 12 -6 22 -16 22 -21z m1031 -31
c12 -23 -2 -25 -51 -7 -30 10 -31 12 -16 23 21 16 54 8 67 -16z m-1096 -87
c-6 -7 -45 19 -45 29 0 5 11 2 24 -8 13 -10 23 -19 21 -21z m1045 -12 c0 -22
-25 -18 -34 6 -3 9 1 14 14 14 13 0 20 -7 20 -20z"/>
</g>
</svg>
