<?xml version="1.0" standalone="no"?>
<!DOCTYPE svg PUBLIC "-//W3C//DTD SVG 20010904//EN"
 "http://www.w3.org/TR/2001/REC-SVG-20010904/DTD/svg10.dtd">
<svg version="1.0" xmlns="http://www.w3.org/2000/svg"
 width="1077.000000pt" height="1280.000000pt" viewBox="0 0 1077.000000 1280.000000"
 preserveAspectRatio="xMidYMid meet">
<metadata>
Created by potrace 1.15, written by Peter Selinger 2001-2017
</metadata>
<g transform="translate(0.000000,1280.000000) scale(0.100000,-0.100000)"
fill="green" stroke="none">
<path d="M0 12790 c0 -5 5 -10 10 -10 6 0 10 5 10 10 0 6 -4 10 -10 10 -5 0
-10 -4 -10 -10z"/>
<path d="M5477 11954 c-91 -22 -214 -90 -277 -154 -63 -63 -164 -235 -204
-347 -28 -79 -57 -187 -88 -328 -21 -95 -31 -343 -15 -397 6 -23 4 -28 -11
-28 -50 0 -103 -93 -89 -153 5 -18 1 -25 -21 -35 -15 -6 -46 -27 -69 -46 -26
-21 -57 -36 -85 -40 -23 -4 -107 -21 -184 -40 -125 -29 -150 -39 -210 -79 -91
-62 -104 -74 -140 -127 -37 -54 -61 -139 -70 -240 -3 -41 -17 -122 -32 -180
-25 -103 -26 -112 -25 -435 1 -181 4 -388 8 -460 l8 -130 -82 -160 c-97 -189
-118 -271 -128 -487 -3 -76 -9 -138 -12 -138 -4 0 -16 19 -28 43 -24 48 -103
157 -114 157 -9 0 -2 -239 8 -294 5 -21 5 -86 1 -145 -3 -58 -9 -158 -13 -221
-3 -63 -8 -121 -10 -127 -3 -7 -7 -59 -11 -115 -8 -143 -9 -152 -18 -167 -5
-7 -9 -58 -9 -114 -2 -142 14 -195 40 -127 9 23 17 30 38 30 l27 0 -6 -77
c-10 -111 -26 -363 -26 -397 0 -23 13 -42 55 -83 48 -46 54 -57 49 -81 -4 -15
-12 -34 -19 -42 -7 -8 -22 -50 -34 -93 -37 -136 -53 -165 -633 -1142 -68 -115
-237 -395 -376 -621 -290 -475 -404 -675 -466 -823 -65 -155 -155 -391 -149
-391 10 0 107 92 156 149 104 120 171 229 502 826 125 226 251 451 280 500 28
50 92 160 140 245 336 587 433 752 500 845 19 28 50 71 68 97 17 26 40 48 49
48 11 0 25 18 39 50 12 28 27 50 34 50 32 0 79 58 129 161 29 59 71 128 94
154 22 25 47 61 56 80 10 19 21 35 26 35 5 0 25 14 45 31 40 35 45 67 20 126
-8 19 -15 41 -15 48 0 7 29 64 66 128 45 80 73 120 92 129 29 14 78 94 87 143
4 19 0 42 -9 60 -19 37 -20 62 -1 95 22 39 18 47 -30 63 -41 15 -46 14 -68 -3
-28 -23 -107 -168 -107 -198 0 -12 -4 -24 -10 -27 -5 -3 -10 -14 -10 -23 0 -9
-18 -48 -39 -85 l-38 -68 -36 60 c-21 32 -37 62 -37 65 0 3 11 6 24 6 13 0 29
7 36 15 7 8 20 15 30 15 14 0 20 11 25 53 3 28 15 85 26 125 23 86 23 100 5
104 -10 2 6 39 55 127 66 120 69 124 79 97 5 -15 13 -25 17 -23 5 3 31 51 58
107 49 101 50 102 30 119 -60 51 -60 51 -14 142 58 116 60 126 68 284 l6 140
37 -105 c66 -192 108 -334 114 -390 8 -79 -11 -297 -27 -317 -8 -8 -19 -61
-25 -117 -6 -56 -18 -132 -27 -171 -8 -38 -23 -135 -32 -215 -22 -199 -38
-283 -90 -466 -33 -115 -49 -196 -59 -296 -8 -75 -34 -229 -58 -340 l-43 -203
1 -225 c0 -398 56 -630 209 -876 128 -204 159 -346 171 -769 3 -143 6 -285 5
-315 -1 -30 5 -102 13 -160 8 -58 17 -148 21 -200 10 -140 29 -229 68 -306 19
-38 40 -87 47 -108 7 -21 37 -66 67 -99 53 -56 55 -61 49 -100 -5 -28 -1 -55
13 -91 10 -28 26 -73 34 -101 24 -74 40 -302 32 -435 -7 -112 -8 -116 -42
-157 -19 -24 -47 -72 -63 -107 -19 -41 -51 -87 -87 -124 -32 -33 -71 -76 -88
-97 -16 -21 -71 -69 -122 -107 -50 -38 -99 -81 -108 -94 -27 -42 -42 -106 -44
-193 -2 -80 -2 -82 31 -115 32 -31 38 -33 149 -44 217 -22 323 -14 427 35 64
30 95 73 127 177 41 132 75 163 218 200 97 25 203 72 225 99 15 18 42 173 42
243 0 66 -31 187 -66 256 l-27 53 -5 281 c-5 319 7 506 39 588 13 32 43 75 84
116 64 67 85 110 85 176 0 39 -26 182 -46 248 -18 64 -18 63 10 37 27 -25 41
-68 54 -169 9 -60 7 -97 -9 -195 -10 -67 -19 -135 -19 -150 0 -17 -13 -45 -34
-70 -105 -131 -102 -203 25 -492 49 -113 53 -126 57 -220 4 -82 -1 -124 -23
-234 -21 -101 -26 -150 -22 -200 10 -120 63 -231 134 -281 20 -14 48 -37 62
-53 15 -15 41 -31 59 -36 38 -11 216 -3 254 11 15 6 50 37 77 71 89 108 131
281 89 362 -9 17 -30 91 -48 165 -17 74 -44 173 -58 220 -21 69 -25 100 -22
165 9 170 3 299 -15 360 l-17 60 27 90 c66 220 81 261 110 296 88 109 126 161
148 205 31 61 67 177 67 215 0 16 11 54 25 86 51 115 68 206 62 343 -4 111 -9
137 -40 225 -57 161 -57 150 23 315 145 297 185 485 206 965 8 176 -2 282 -50
513 -18 89 -31 162 -29 162 12 0 61 -31 78 -50 44 -48 57 -50 244 -31 141 15
176 22 192 37 23 23 39 104 39 194 0 69 16 256 25 298 4 16 13 22 33 22 15 0
33 -5 39 -11 17 -17 53 73 53 135 0 28 16 128 35 221 20 94 54 270 76 393 21
122 46 241 53 265 8 23 22 84 31 136 8 52 29 126 45 164 16 39 28 73 25 75 -2
3 -45 -23 -94 -57 -49 -33 -91 -61 -94 -61 -2 0 -7 35 -11 78 -5 57 -2 90 10
127 8 28 18 93 20 145 5 87 2 105 -31 220 -67 232 -68 265 -9 490 50 188 46
223 -50 485 -20 56 -26 88 -26 161 0 50 -6 112 -14 138 -25 81 -136 263 -208
341 -72 77 -263 219 -392 291 -45 25 -96 57 -113 72 l-33 27 25 68 c14 38 26
89 28 115 2 42 -1 47 -32 69 -48 33 -94 43 -196 43 -133 0 -137 2 -129 60 l6
47 -45 7 c-38 6 -54 3 -96 -18 -79 -40 -87 -37 -95 37 -3 34 -11 175 -17 312
-9 231 -19 313 -51 425 -19 67 -142 273 -200 336 -122 131 -300 182 -481 138z
m1339 -3476 c15 -29 43 -78 62 -108 66 -103 112 -193 112 -221 0 -15 -8 -47
-19 -71 -26 -62 -51 -178 -51 -240 0 -30 7 -107 16 -173 l15 -118 -25 -24
c-33 -30 -40 -76 -27 -160 5 -37 13 -92 17 -120 3 -29 10 -53 15 -53 5 0 9 24
10 53 1 64 6 47 38 -128 12 -66 27 -137 32 -158 5 -20 6 -43 2 -50 -5 -8 -9
-1 -13 18 -10 57 -25 25 -30 -62 -3 -49 -10 -97 -16 -108 -7 -11 -9 -34 -7
-52 5 -28 -5 -42 -87 -138 -51 -58 -95 -104 -97 -101 -16 15 -87 365 -102 502
-6 44 -19 107 -29 140 -11 32 -23 95 -27 139 -4 50 -14 95 -26 119 -18 34 -20
60 -22 215 l-2 176 42 110 c58 152 113 338 113 381 0 20 13 80 29 133 16 53
32 108 35 124 4 15 8 27 11 27 3 0 17 -24 31 -52z m143 -2193 c38 -24 77 -67
100 -112 11 -21 8 -24 -39 -48 -28 -14 -55 -23 -60 -20 -6 4 -10 33 -10 66 0
51 -4 63 -25 83 -16 15 -23 30 -19 40 8 20 7 21 53 -9z m-1319 -262 c0 -36 -2
-64 -5 -61 -9 8 -25 110 -19 119 15 24 24 2 24 -58z m20 -1247 c7 -59 25 -159
40 -221 16 -62 43 -187 59 -277 17 -89 35 -179 41 -198 9 -32 6 -39 -49 -125
-33 -49 -73 -124 -90 -167 -32 -81 -57 -198 -47 -223 13 -36 -17 -10 -51 42
-54 85 -111 211 -129 289 -38 161 3 473 99 772 25 75 55 182 66 237 32 146 34
150 43 60 4 -44 12 -129 18 -189z"/>
</g>
</svg>
