<?xml version="1.0" standalone="no"?>
<!DOCTYPE svg PUBLIC "-//W3C//DTD SVG 20010904//EN"
 "http://www.w3.org/TR/2001/REC-SVG-20010904/DTD/svg10.dtd">
<svg version="1.0" xmlns="http://www.w3.org/2000/svg"
 width="1038.000000pt" height="1280.000000pt" viewBox="0 0 1038.000000 1280.000000"
 preserveAspectRatio="xMidYMid meet">
<metadata>
Created by potrace 1.15, written by Peter Selinger 2001-2017
</metadata>
<g transform="translate(0.000000,1280.000000) scale(0.100000,-0.100000)"
fill="red" stroke="none">
<path d="M4900 12327 c0 -4 12 -35 26 -70 14 -34 30 -75 35 -92 29 -89 39
-355 18 -469 -16 -89 -78 -196 -155 -268 -45 -41 -261 -178 -281 -178 -10 0
-31 16 -47 36 -35 45 -103 88 -170 110 -28 9 -62 27 -77 40 -30 29 -48 30 -80
6 -13 -10 -42 -24 -65 -30 -44 -13 -148 -77 -177 -109 -9 -11 -25 -36 -35 -55
-9 -20 -38 -58 -64 -86 l-47 -50 -83 3 c-108 4 -336 63 -443 114 -130 62 -208
140 -280 282 -53 103 -69 171 -69 289 -1 89 3 116 26 180 14 41 25 77 23 78
-7 8 -86 -146 -102 -198 -20 -64 -22 -239 -4 -337 27 -143 135 -332 238 -415
78 -64 314 -180 436 -214 56 -16 97 -33 97 -40 0 -7 9 -15 19 -19 18 -6 18 -7
0 -83 -45 -185 -48 -191 -88 -198 -111 -18 -113 -20 -77 -93 17 -33 40 -60 66
-76 24 -15 42 -35 45 -50 3 -14 8 -37 11 -52 10 -50 110 -173 141 -173 25 0
11 -92 -21 -141 -25 -37 -29 -39 -44 -26 -23 20 -211 31 -249 15 -15 -6 -44
-29 -63 -51 -19 -21 -60 -51 -90 -65 -71 -35 -92 -68 -120 -187 l-22 -97 -51
-23 c-29 -13 -86 -37 -127 -54 -115 -47 -229 -119 -288 -180 -61 -63 -120
-178 -153 -296 -20 -75 -24 -81 -107 -164 -91 -91 -136 -159 -256 -380 -37
-69 -85 -146 -107 -172 -37 -44 -235 -189 -258 -189 -10 0 -16 17 -23 65 -2
11 -12 21 -23 22 -29 4 -169 -195 -284 -402 -115 -209 -209 -439 -271 -663
-22 -81 -56 -199 -76 -262 -19 -63 -34 -122 -34 -130 0 -9 9 -33 20 -55 17
-33 18 -42 7 -59 -8 -12 -31 -66 -52 -121 -21 -55 -62 -153 -92 -217 -46 -100
-56 -131 -65 -212 -19 -164 3 -206 128 -251 45 -15 90 -39 106 -56 16 -16 35
-29 41 -29 7 0 33 -11 59 -25 72 -38 122 -30 177 29 17 18 35 26 58 26 25 0
33 4 33 18 0 10 13 -3 31 -31 29 -46 31 -48 71 -45 l42 3 54 120 c30 66 55
136 56 155 l2 35 134 31 c74 18 197 46 272 64 l137 31 236 161 c130 88 234
162 233 164 -2 1 -106 12 -231 24 l-227 21 -202 -75 c-112 -41 -240 -88 -285
-105 l-83 -30 -14 28 c-8 15 -22 58 -30 95 -9 37 -25 85 -35 106 -19 40 -19
40 0 51 11 5 37 38 59 72 22 35 58 79 80 99 23 21 40 46 40 58 0 23 38 73 136
179 34 36 68 82 76 101 22 53 65 98 113 119 43 19 62 42 111 131 10 19 36 56
56 82 39 48 45 67 29 97 -7 13 -2 30 19 67 38 66 84 112 155 154 33 19 118 91
190 160 71 69 162 152 202 183 61 49 102 96 203 229 15 19 15 19 72 -2 54 -20
148 -85 216 -148 30 -28 32 -34 32 -98 0 -128 40 -267 95 -334 16 -20 70 -153
96 -235 11 -35 30 -77 43 -92 27 -33 62 -124 110 -291 51 -174 50 -287 -3
-372 -31 -49 -53 -127 -48 -169 3 -24 -1 -65 -8 -90 -7 -25 -18 -82 -24 -126
-7 -44 -16 -107 -21 -140 -5 -33 -12 -152 -15 -265 -3 -113 -13 -275 -22 -360
-23 -230 -21 -494 5 -653 12 -70 22 -155 22 -190 0 -108 9 -134 61 -192 27
-29 49 -60 49 -68 0 -26 51 -66 111 -88 l55 -20 13 -61 c7 -33 27 -117 46
-187 39 -147 84 -352 92 -420 l5 -48 -74 -74 c-41 -41 -91 -99 -110 -129 -20
-30 -46 -64 -58 -75 -28 -25 -46 -60 -54 -108 -4 -21 -16 -53 -26 -70 -11 -17
-22 -51 -26 -74 -8 -51 -19 -63 -28 -27 -12 45 -31 20 -37 -47 -3 -35 -16
-100 -27 -143 -12 -44 -23 -104 -23 -135 -1 -31 -3 -48 -6 -38 -2 9 -9 15 -14
11 -5 -3 -12 9 -16 26 -5 25 -8 29 -15 16 -8 -14 -10 -14 -28 1 -15 13 -17 19
-7 26 8 5 2 7 -15 4 -15 -2 -27 -1 -26 2 2 20 -4 30 -15 26 -7 -3 -18 9 -26
27 -8 18 -16 27 -18 21 -3 -7 -11 -9 -19 -6 -8 3 -14 -1 -14 -8 0 -7 -3 -9 -6
-6 -4 4 -1 13 5 21 10 11 8 18 -10 35 -12 11 -26 18 -30 15 -9 -5 -42 9 -39
17 5 10 -24 58 -31 53 -5 -3 -14 -2 -20 2 -8 5 -8 9 1 14 8 5 1 11 -18 18 -17
6 -33 20 -37 31 -3 12 -11 19 -16 16 -5 -4 -12 1 -15 9 -3 9 -10 14 -14 11
-15 -9 -23 17 -9 27 12 8 11 9 -1 5 -8 -2 -14 -12 -14 -21 1 -9 -2 -16 -8 -16
-5 0 -6 -5 -2 -12 4 -6 3 -8 -3 -5 -6 4 -8 17 -6 29 2 13 0 36 -6 51 -9 22
-14 26 -28 19 -21 -12 -59 28 -40 40 8 5 6 8 -5 8 -19 0 -50 39 -42 52 3 4 0
8 -6 8 -7 0 -9 7 -6 16 3 8 2 12 -4 9 -6 -3 -10 -17 -10 -30 0 -31 -10 -55
-22 -55 -6 0 -4 7 3 17 11 13 11 17 2 20 -10 4 -10 10 -2 25 10 18 9 20 -5 15
-22 -9 -21 19 2 33 15 9 14 10 -5 5 -18 -5 -23 -2 -23 12 0 15 -2 16 -10 3 -8
-13 -10 -12 -10 3 0 9 -7 17 -16 17 -11 0 -15 6 -11 20 4 15 0 20 -16 20 -17
0 -19 -2 -8 -9 11 -7 10 -10 -5 -13 -16 -3 -13 -7 14 -21 17 -10 32 -20 32
-23 0 -3 -4 -2 -10 1 -5 3 -10 1 -10 -6 0 -8 -5 -7 -17 2 -9 8 -24 13 -35 11
-10 -2 -18 2 -18 8 0 7 -7 10 -17 6 -15 -5 -15 -4 1 9 11 8 14 15 8 15 -7 0
-12 7 -12 16 0 13 6 15 27 9 23 -5 25 -4 13 10 -7 8 -15 13 -18 11 -9 -10 -31
22 -26 40 6 24 -45 52 -58 31 -4 -6 -8 -7 -8 -2 0 6 -5 3 -11 -5 -9 -13 -10
-12 -5 2 5 16 -5 23 -27 19 -5 -1 -6 3 -3 8 4 5 -8 16 -24 25 -29 14 -32 14
-47 -3 -17 -21 -53 -17 -53 6 0 12 3 12 16 -2 14 -13 19 -14 25 -3 12 19 11
30 -3 22 -7 -5 -8 -3 -3 5 4 7 15 11 25 8 13 -3 16 1 14 19 -1 12 -5 27 -8 33
-10 15 -36 2 -29 -15 3 -9 12 -13 22 -9 12 5 13 3 4 -6 -12 -12 -45 -6 -41 8
4 14 -13 53 -22 53 -5 0 -7 8 -4 17 5 14 4 15 -4 4 -7 -9 -12 -10 -16 -2 -13
20 -45 -6 -40 -31 4 -21 4 -21 -4 -3 -6 14 -4 27 6 43 8 13 11 22 6 21 -21 -4
-26 2 -14 16 10 12 9 16 -4 21 -9 4 -20 4 -23 0 -10 -9 -34 15 -26 27 4 6 0 8
-10 4 -8 -3 -21 0 -27 8 -9 11 -7 12 9 8 12 -3 21 -1 21 6 0 5 -7 8 -15 5 -8
-4 -15 -1 -15 5 0 6 -7 8 -15 5 -8 -4 -13 -9 -11 -13 3 -4 -4 -7 -14 -7 -10 0
-17 3 -14 7 2 4 -1 9 -8 11 -7 3 -5 7 6 11 10 4 15 3 11 -3 -3 -6 -1 -10 4
-10 10 0 14 11 9 28 -1 4 -9 6 -17 4 -9 -3 -12 2 -7 15 6 17 6 17 -8 0 -13
-17 -15 -16 -26 18 -9 28 -15 34 -25 25 -9 -8 -15 -8 -20 0 -3 5 -15 10 -26
10 -11 0 -17 5 -14 10 3 6 2 10 -4 10 -5 0 -11 -6 -14 -12 -3 -7 -4 -3 -4 10
1 12 8 22 17 22 12 1 12 3 -3 11 -9 6 -15 15 -11 20 7 13 -43 4 -61 -11 -10
-8 -14 -7 -18 2 -4 9 -6 8 -6 -3 -1 -27 -27 -30 -48 -6 l-18 22 24 -20 c17
-14 22 -16 19 -5 -3 8 -1 25 3 37 6 17 5 21 -6 17 -7 -3 -11 -13 -9 -22 5 -13
2 -13 -10 2 -12 15 -13 22 -4 27 7 5 10 10 7 14 -3 3 -14 -5 -25 -17 -10 -12
-13 -18 -6 -14 11 7 12 4 3 -13 -13 -24 -23 -29 -15 -7 3 8 1 17 -5 21 -16 9
-13 25 3 25 8 0 18 4 21 10 3 6 -1 7 -10 4 -8 -4 -23 0 -32 7 -15 12 -16 12
-10 -3 5 -13 1 -18 -13 -18 -11 0 -21 7 -21 15 -3 29 -4 33 -13 42 -5 4 -6 3
-2 -4 9 -16 -14 -29 -24 -12 -5 7 -7 16 -5 19 2 3 -5 6 -15 6 -10 0 -16 -6
-13 -13 3 -7 9 -10 14 -7 5 3 9 0 9 -5 0 -16 -14 -13 -43 9 -14 11 -33 20 -43
20 -21 0 -13 -11 12 -14 9 -2 18 -10 20 -19 3 -20 0 -21 -26 -5 -16 11 -22 9
-34 -7 -17 -23 -21 -13 -6 15 7 13 7 21 -2 26 -7 4 -8 3 -4 -4 5 -8 0 -12 -13
-12 -12 0 -21 -4 -21 -9 0 -6 -9 -8 -19 -6 -11 2 -25 -3 -32 -11 -7 -9 -8 -14
-1 -14 6 0 13 6 15 13 4 9 6 9 6 0 1 -7 7 -10 14 -7 9 3 12 -7 11 -38 0 -23
-6 -44 -13 -46 -6 -2 -8 -8 -5 -13 3 -6 12 -5 22 3 13 11 14 11 7 -1 -6 -11
-4 -13 10 -7 16 6 16 4 4 -10 -12 -15 -11 -16 9 -10 17 6 22 3 22 -9 0 -9 -5
-13 -11 -9 -6 3 -3 -5 6 -20 19 -28 30 -35 22 -11 -4 8 -2 17 2 20 5 2 11 -4
14 -15 3 -11 1 -23 -4 -26 -5 -3 -9 -10 -9 -15 0 -6 6 -7 12 -3 9 5 9 2 -1 -9
-10 -12 -10 -17 -2 -17 8 0 10 -8 6 -20 -4 -11 -2 -20 4 -20 6 0 11 6 11 13 0
8 4 7 10 -3 6 -9 13 -11 18 -5 8 11 53 15 46 4 -2 -4 9 -13 26 -21 16 -7 30
-16 30 -20 0 -13 -12 -9 -32 9 -10 9 -21 13 -25 9 -5 -4 0 -12 9 -17 10 -5 14
-17 11 -29 -3 -12 0 -20 6 -20 7 0 9 4 6 10 -3 5 -2 10 3 10 6 0 13 -7 16 -16
3 -8 2 -12 -4 -9 -6 3 -10 1 -10 -4 0 -6 7 -11 16 -11 10 0 14 -6 11 -14 -4
-10 -1 -13 7 -10 13 5 30 -29 26 -51 -1 -5 5 -4 12 4 10 11 10 14 1 18 -17 6
-16 40 1 46 15 6 26 -1 26 -16 0 -5 -7 -6 -16 -3 -8 3 -12 2 -9 -4 3 -6 16
-10 28 -10 22 -1 22 -1 3 -15 -13 -9 -15 -15 -7 -15 8 0 19 7 25 15 8 10 15
12 26 5 10 -6 11 -10 3 -10 -7 0 -13 -8 -13 -17 0 -15 2 -16 10 -3 8 13 10 13
10 -2 0 -9 -6 -19 -12 -21 -9 -4 -10 -6 -1 -6 14 -1 43 26 43 40 0 6 -4 7 -10
4 -16 -10 -11 1 7 16 14 12 16 12 8 0 -6 -11 -4 -13 8 -8 11 4 17 1 17 -8 0
-8 -5 -15 -11 -15 -5 0 -7 -5 -4 -10 3 -5 0 -10 -7 -10 -7 0 -4 -6 7 -12 28
-16 36 -31 22 -40 -9 -6 -9 -8 0 -8 22 0 24 19 3 40 -11 11 -19 20 -17 21 29
9 47 7 42 -3 -4 -7 0 -5 9 6 14 18 15 17 21 -7 4 -14 4 -30 1 -36 -4 -5 -2
-13 4 -16 8 -5 7 -12 -2 -23 -12 -15 -11 -16 5 -3 16 13 20 13 28 0 7 -12 9
-11 9 2 0 9 -10 20 -22 23 -21 6 -22 7 -5 17 10 6 25 8 33 5 9 -3 12 -1 9 4
-3 6 -1 10 5 10 6 0 9 4 6 8 -2 4 4 8 15 8 19 0 19 -1 3 -13 -10 -7 -13 -13
-8 -13 14 0 14 -33 0 -43 -6 -4 3 -5 19 -1 22 4 26 3 15 -5 -10 -7 -5 -9 20
-7 19 2 34 8 33 14 -2 6 4 9 12 6 8 -4 15 -10 15 -14 0 -4 9 -10 21 -13 14 -4
18 -10 13 -18 -6 -10 -9 -10 -12 -1 -2 7 -8 12 -13 12 -6 0 -6 -7 0 -19 9 -15
6 -22 -14 -35 -14 -9 -25 -21 -25 -26 0 -6 9 -1 20 10 12 12 26 18 32 14 7 -4
8 -3 4 5 -6 8 0 10 18 5 17 -4 26 -2 26 6 0 7 -7 10 -15 6 -8 -3 -15 -1 -15 5
0 15 53 4 58 -12 3 -12 2 -12 -7 0 -8 12 -11 10 -16 -11 -5 -17 -12 -25 -21
-21 -19 7 -18 -12 3 -28 11 -9 14 -10 9 -2 -5 9 -2 11 8 7 9 -3 13 -10 10 -15
-10 -16 8 -9 23 9 13 16 14 15 8 -4 -5 -18 -1 -22 25 -26 16 -3 30 -1 30 4 0
4 8 8 17 8 15 0 14 -2 -4 -15 -12 -8 -28 -12 -37 -9 -11 4 -19 -2 -26 -21 -13
-33 -13 -58 0 -50 5 3 6 13 3 22 -4 10 -2 14 4 10 7 -5 9 0 6 13 -3 11 0 20 6
20 6 0 11 -5 11 -11 0 -5 5 -7 12 -3 7 5 9 2 5 -9 -7 -18 19 -32 29 -15 4 6 3
8 -2 5 -5 -3 -10 3 -10 14 0 10 3 19 7 19 12 0 19 -44 9 -54 -15 -15 -12 -26
4 -20 11 4 13 0 9 -15 -3 -12 0 -27 6 -35 7 -8 10 -19 9 -26 -6 -25 22 -21 33
4 7 14 19 26 27 26 10 0 7 -9 -11 -33 -17 -22 -22 -38 -17 -47 5 -8 6 -18 3
-24 -3 -5 -1 -6 4 -3 15 9 24 -34 11 -50 -7 -9 -7 -13 0 -13 6 0 14 9 17 20 8
24 12 24 45 4 14 -8 17 -13 7 -10 -21 7 -49 -3 -41 -15 3 -5 0 -9 -5 -9 -6 0
-11 -8 -10 -17 0 -11 3 -13 6 -5 2 6 9 12 14 12 6 0 7 -4 4 -10 -4 -6 1 -7 11
-3 11 4 13 8 6 11 -7 2 -12 9 -12 15 0 15 23 -8 26 -25 1 -7 5 -22 9 -33 5
-14 4 -16 -3 -6 -20 28 -24 -10 -4 -43 18 -30 18 -34 3 -44 -14 -10 -14 -11 0
-6 9 3 22 -3 30 -13 13 -16 12 -17 -4 -4 -18 14 -22 5 -8 -18 5 -7 13 -11 19
-7 6 3 13 -2 15 -11 3 -13 5 -10 6 7 1 19 3 22 10 10 6 -8 7 -18 5 -22 -13
-20 -12 -48 1 -48 8 0 17 -5 21 -11 4 -7 0 -9 -14 -5 -12 4 -23 2 -28 -5 -4
-8 -3 -9 4 -5 15 9 52 -11 52 -28 0 -8 7 -17 16 -20 8 -3 13 -10 9 -15 -3 -6
3 -8 15 -6 11 2 19 -1 17 -8 -1 -7 3 -11 9 -10 7 1 11 -5 10 -15 -1 -11 5 -16
16 -14 12 2 16 -3 13 -16 -2 -14 2 -18 18 -17 22 2 48 -15 41 -26 -2 -3 8 -5
22 -3 19 2 24 -1 20 -12 -3 -7 -2 -13 2 -13 21 3 32 -3 32 -18 0 -14 3 -14 22
3 12 10 18 13 14 6 -5 -8 0 -12 16 -13 13 0 17 -3 11 -6 -20 -7 -15 -19 7 -20
13 -1 18 2 14 10 -4 7 5 1 19 -12 15 -14 27 -21 27 -17 0 5 8 2 17 -5 11 -9
14 -10 9 -2 -5 9 -2 11 8 7 9 -3 16 -13 16 -21 0 -12 3 -13 15 -3 18 15 40 3
26 -13 -6 -9 -2 -12 15 -13 13 -1 22 2 19 6 -3 4 2 10 10 13 10 4 12 1 8 -10
-4 -11 -2 -14 5 -9 6 4 20 2 31 -3 14 -8 21 -8 24 2 3 7 6 5 6 -5 1 -16 12
-23 34 -19 4 1 10 -6 13 -14 6 -14 8 -13 20 2 13 16 15 17 27 2 6 -9 19 -14
27 -11 13 5 13 3 1 -12 -13 -16 -11 -17 28 -12 36 4 40 2 30 -10 -10 -12 -9
-13 7 -7 10 3 22 11 26 17 4 6 8 -19 8 -55 0 -75 15 -129 36 -129 19 0 28 -42
28 -145 1 -83 -3 -103 -48 -236 -58 -171 -58 -192 5 -209 34 -9 39 -14 33 -32
-19 -60 -31 -178 -27 -250 5 -59 1 -99 -13 -154 -16 -66 -17 -81 -5 -132 7
-31 17 -87 21 -125 8 -72 25 -102 70 -119 88 -34 744 -65 768 -35 12 15 21 90
27 232 l5 110 -76 153 c-68 137 -76 160 -81 226 -3 41 -2 87 2 102 l8 29 14
-33 c12 -30 17 -33 51 -30 l37 3 -3 186 -4 186 45 109 c46 112 77 214 97 319
18 94 18 95 51 95 65 0 205 -87 324 -201 148 -142 226 -183 398 -209 98 -15
188 -1 277 41 122 57 176 119 167 188 -9 69 -52 173 -86 204 -65 60 -486 289
-593 323 -42 13 -58 23 -58 35 0 19 136 124 205 159 22 11 94 41 160 66 201
77 346 176 412 279 24 39 36 47 83 61 150 42 222 85 270 161 61 96 66 193 20
408 -12 55 -11 66 9 132 21 70 24 74 79 109 31 20 75 53 97 73 22 21 55 46 74
57 35 20 71 79 71 116 0 13 -11 56 -25 96 -14 41 -25 77 -25 81 0 4 29 37 64
73 53 54 64 72 70 109 9 64 -35 207 -129 414 -42 94 -102 244 -131 335 -32 97
-83 223 -124 305 -60 122 -70 149 -73 208 -6 90 -45 155 -160 269 -67 67 -98
90 -137 103 -57 19 -66 28 -45 45 8 7 15 18 15 26 0 7 9 18 20 24 53 28 -11
262 -94 345 -39 39 -42 52 -24 101 9 25 8 42 -3 80 -7 27 -12 54 -10 59 2 6 7
73 11 150 5 96 12 150 23 171 38 73 60 196 64 354 2 85 8 171 13 190 12 45 47
312 55 415 3 44 13 110 21 147 7 37 23 138 34 225 17 129 19 167 9 206 -6 26
-15 50 -20 53 -5 3 -9 10 -9 16 0 20 62 -2 144 -51 192 -116 267 -141 419
-141 105 0 199 16 340 56 88 26 88 26 181 10 52 -9 105 -16 118 -16 14 0 47
-9 73 -21 42 -19 54 -20 104 -11 52 10 130 16 386 28 184 9 429 64 625 141
104 41 292 141 328 174 l33 31 42 -15 c23 -9 60 -19 82 -23 22 -4 49 -11 60
-17 11 -6 76 -15 144 -21 l124 -11 56 -95 c56 -94 57 -95 99 -98 54 -4 101 19
170 83 l56 52 -40 35 c-32 30 -99 85 -113 95 -2 1 13 17 33 36 27 26 36 43 36
66 0 18 9 49 20 71 27 54 26 107 -5 152 -14 20 -25 44 -25 53 0 25 -27 71 -55
93 -14 11 -25 25 -25 31 0 6 -7 28 -16 50 -18 45 -71 77 -136 84 -20 2 -48 11
-62 20 -36 24 -103 21 -178 -7 -124 -47 -102 -61 -299 194 -152 198 -382 505
-492 657 l-38 51 58 17 c47 14 83 16 193 12 129 -5 140 -7 232 -45 53 -22 114
-54 135 -70 64 -51 103 -50 215 2 88 41 100 50 133 99 36 54 36 56 30 128 -5
57 -15 90 -42 144 -31 61 -47 78 -122 135 -48 35 -112 74 -145 86 l-59 21 -57
-23 c-184 -74 -452 -151 -646 -185 -56 -9 -79 -9 -105 0 -53 19 -199 26 -242
12 -54 -18 -94 -55 -101 -95 -5 -26 -18 -43 -56 -70 -28 -20 -50 -40 -50 -45
0 -4 34 -38 76 -74 59 -51 90 -70 133 -82 31 -8 74 -24 96 -35 22 -11 49 -20
60 -20 12 0 41 -21 66 -47 65 -68 739 -831 739 -837 0 -3 -15 -9 -32 -14 -28
-7 -39 -4 -72 20 -65 47 -98 51 -315 39 -108 -6 -243 -14 -301 -17 -193 -10
-485 -35 -515 -43 -16 -5 -70 -17 -120 -26 -97 -18 -118 -30 -136 -79 -10 -28
-21 -34 -98 -59 -47 -15 -96 -28 -109 -27 -30 0 -587 182 -639 208 -23 12 -44
25 -47 30 -3 5 -12 55 -21 113 -24 153 -45 231 -69 258 -36 41 -189 151 -215
157 -14 3 -59 14 -100 25 -105 29 -214 39 -391 39 -85 -1 -170 3 -188 9 -61
18 -119 63 -140 107 -30 61 -174 217 -234 255 -41 25 -55 29 -68 20 -28 -20
-42 -24 -49 -12 -5 7 -21 -1 -49 -25 -34 -28 -43 -32 -47 -20 -3 9 -7 23 -10
32 -4 12 -10 10 -29 -13 l-25 -28 3 65 c1 36 9 74 16 86 11 18 8 30 -24 95
l-37 74 28 19 c47 34 182 168 234 233 27 33 61 86 75 117 34 74 58 221 50 311
-9 117 -51 278 -99 378 -40 82 -117 204 -117 184z m193 -7744 c19 -27 58 -91
87 -143 30 -52 76 -128 104 -169 65 -94 76 -112 76 -132 0 -9 18 -29 39 -43
63 -44 60 -54 -17 -60 -112 -10 -186 -33 -293 -91 -56 -30 -105 -53 -107 -50
-3 3 6 52 21 109 15 57 32 148 37 202 11 98 9 132 -12 292 -8 66 -8 89 3 108
7 13 16 24 20 24 4 0 23 -21 42 -47z m-3154 -514 c-12 -10 -17 -19 -10 -19 9
0 8 -4 -1 -14 -7 -8 -17 -12 -22 -9 -4 3 -4 8 0 12 5 3 9 12 10 19 2 25 4 28
25 29 20 2 20 2 -2 -18z m-64 -12 c15 -3 13 -5 -8 -6 -16 0 -26 -5 -22 -11 3
-5 2 -10 -3 -10 -5 0 -9 11 -9 25 0 18 3 23 11 16 6 -5 20 -11 31 -14z m-88
-29 c-3 -7 -5 -2 -5 12 0 14 2 19 5 13 2 -7 2 -19 0 -25z m203 18 c0 -7 -8
-20 -17 -27 -16 -13 -17 -12 -5 3 8 9 11 22 7 28 -3 5 -1 10 4 10 6 0 11 -6
11 -14z m-167 -20 c4 -10 1 -13 -9 -9 -15 6 -19 23 -5 23 5 0 11 -7 14 -14z
m380 -37 c-3 -11 -10 -22 -15 -25 -6 -4 -8 2 -3 15 5 17 3 20 -12 14 -15 -6
-16 -5 -3 9 19 20 39 12 33 -13z m-348 4 c-2 -10 -4 -24 -4 -30 -1 -7 -5 -13
-10 -13 -5 0 -7 10 -3 22 4 16 2 19 -9 14 -8 -4 -5 0 5 8 25 20 25 20 21 -1z
m46 -16 c-10 -9 -11 -8 -5 6 3 10 9 15 12 12 3 -3 0 -11 -7 -18z m89 19 c0 -3
-4 -8 -10 -11 -5 -3 -10 -1 -10 4 0 6 5 11 10 11 6 0 10 -2 10 -4z m70 -2 c0
-8 -19 -13 -24 -6 -3 5 1 9 9 9 8 0 15 -2 15 -3z m134 -59 c-4 -8 -14 -15 -23
-15 -14 1 -13 3 3 15 25 19 27 19 20 0z m40 -34 c3 -4 -6 -6 -19 -3 -14 2 -25
6 -25 8 0 8 39 4 44 -5z m91 -31 c4 -6 -1 -7 -11 -3 -12 4 -15 3 -10 -5 4 -7
1 -12 -10 -12 -13 0 -14 3 -4 15 14 17 26 19 35 5z m-385 -10 c0 -5 -7 -7 -15
-4 -8 4 -15 8 -15 10 0 2 7 4 15 4 8 0 15 -4 15 -10z m85 -30 c3 -5 1 -10 -4
-10 -6 0 -11 5 -11 10 0 6 2 10 4 10 3 0 8 -4 11 -10z m-5 -42 c0 -5 -7 -3
-15 6 -8 8 -15 18 -15 22 0 3 7 1 15 -6 8 -7 15 -17 15 -22z m344 20 c-7 -11
-34 -10 -34 1 0 6 9 9 19 8 11 0 17 -5 15 -9z m-267 -35 c1 -22 -1 -24 -8 -10
-6 9 -7 22 -4 27 9 14 10 13 12 -17z m333 17 c12 -7 12 -12 2 -22 -9 -9 -12
-9 -12 5 0 24 -16 21 -34 -5 -9 -12 -16 -18 -16 -14 0 11 30 46 39 46 3 0 13
-5 21 -10z m-110 -45 c0 -5 -5 -3 -10 5 -5 8 -10 20 -10 25 0 6 5 3 10 -5 5
-8 10 -19 10 -25z m167 15 c-1 -11 -7 -20 -14 -20 -16 0 -17 12 -1 28 16 16
17 15 15 -8z m-440 -32 c-3 -7 -5 -2 -5 12 0 14 2 19 5 13 2 -7 2 -19 0 -25z
m81 -11 l23 -13 -24 -11 c-22 -10 -25 -9 -30 13 -5 27 -1 28 31 11z m62 3 c12
-8 11 -10 -7 -10 -13 0 -23 5 -23 10 0 13 11 13 30 0z m255 0 c-3 -5 -12 -10
-18 -10 -7 0 -6 4 3 10 19 12 23 12 15 0z m135 -56 c0 -3 -4 -2 -10 1 -5 3
-10 2 -10 -4 0 -5 5 -13 10 -16 6 -3 10 -11 10 -16 0 -19 -26 16 -38 50 -7 19
-12 35 -12 37 0 2 11 -8 25 -22 14 -14 25 -27 25 -30z m-380 26 c0 -5 -2 -10
-4 -10 -3 0 -8 5 -11 10 -3 6 -1 10 4 10 6 0 11 -4 11 -10z m45 -22 c-3 -8
-12 -15 -20 -15 -12 0 -11 4 3 17 20 20 25 19 17 -2z m220 3 c3 -5 0 -13 -6
-17 -8 -5 -9 -3 -4 6 6 10 4 12 -9 7 -10 -4 -15 -3 -11 3 8 13 22 13 30 1z
m22 -13 c-3 -8 -6 -5 -6 6 -1 11 2 17 5 13 3 -3 4 -12 1 -19z m-207 -8 c0 -5
-5 -10 -11 -10 -5 0 -7 5 -4 10 3 6 8 10 11 10 2 0 4 -4 4 -10z m60 5 c0 -2
-10 -9 -22 -15 -22 -11 -22 -10 -4 4 21 17 26 19 26 11z m105 -15 c3 -5 1 -10
-4 -10 -6 0 -11 5 -11 10 0 6 2 10 4 10 3 0 8 -4 11 -10z m-151 -50 c-6 -5
-24 21 -24 34 0 6 6 1 14 -10 8 -10 12 -21 10 -24z m216 15 c0 -2 -10 -9 -22
-15 -22 -11 -22 -10 -4 4 21 17 26 19 26 11z m30 -9 c0 -3 -4 -8 -10 -11 -5
-3 -10 -1 -10 4 0 6 5 11 10 11 6 0 10 -2 10 -4z m-126 -35 c-2 -3 -12 3 -22
13 -16 17 -16 18 5 5 12 -7 20 -15 17 -18z m239 6 c3 -8 -1 -14 -9 -14 -15 0
-18 9 -7 20 9 9 10 9 16 -6z m-121 -9 c-8 -8 -9 -15 0 -25 8 -11 7 -12 -6 -7
-9 3 -16 9 -16 13 0 8 22 31 29 31 3 0 0 -5 -7 -12z m-38 -7 c3 -5 0 -11 -7
-14 -8 -3 -14 1 -14 9 0 16 13 19 21 5z m110 -26 c-16 -25 -16 -27 4 -45 20
-19 20 -19 34 2 l15 22 5 -22 c4 -14 2 -20 -4 -16 -6 4 -14 0 -19 -7 -6 -11
-15 -7 -39 16 -16 16 -30 36 -29 44 0 12 2 12 6 3 4 -10 9 -8 20 7 20 30 27
26 7 -4z m83 -2 c0 -9 -4 -10 -14 -2 -7 6 -13 12 -13 14 0 1 6 2 13 2 8 0 14
-6 14 -14z m-37 3 c0 -3 -4 -8 -10 -11 -5 -3 -10 -1 -10 4 0 6 5 11 10 11 6 0
10 -2 10 -4z m140 -6 c12 -8 12 -10 -3 -16 -17 -6 -17 -7 0 -27 10 -11 12 -17
6 -13 -16 9 -16 1 -3 -24 15 -28 -28 -67 -45 -41 -3 5 0 13 6 17 8 4 9 3 5 -4
-4 -7 -2 -12 3 -12 6 0 11 4 11 9 0 5 3 17 7 27 5 12 3 15 -6 9 -10 -6 -11 -3
-1 16 10 20 10 22 -1 12 -16 -16 -33 -17 -23 -1 5 8 1 9 -12 5 -15 -5 -14 -3
4 9 12 9 22 23 22 30 0 16 9 17 30 4z m-83 -19 c0 -11 -7 -17 -14 -14 -9 4 -9
8 0 19 16 17 16 17 14 -5z m-21 -50 c-9 -10 -16 -23 -16 -30 0 -7 -5 -9 -11
-6 -7 5 -3 15 10 29 12 12 18 26 14 31 -5 4 -2 5 5 1 11 -7 10 -11 -2 -25z
m-86 -11 c0 -4 10 -10 22 -14 22 -5 22 -6 3 -20 -11 -9 -24 -15 -30 -15 -5 0
-1 6 9 14 20 15 20 15 0 15 -11 0 -26 6 -33 13 -11 10 -13 10 -7 0 7 -13 -6
-18 -17 -6 -10 9 25 32 40 26 7 -3 13 -9 13 -13z m86 -38 c-17 -16 -18 -16 -5
5 7 12 15 20 18 17 3 -2 -3 -12 -13 -22z m54 22 c0 -8 -19 -13 -24 -6 -3 5 1
9 9 9 8 0 15 -2 15 -3z m-22 -65 c-12 -8 -4 -13 14 -10 4 0 5 -6 1 -15 -4 -11
-8 -12 -13 -4 -4 6 -10 11 -14 11 -3 -1 -6 1 -6 4 0 3 0 12 0 20 0 9 6 12 16
8 13 -5 13 -7 2 -14z m223 -14 c2 -24 4 -29 14 -45 8 -13 7 -13 -8 -1 -9 7
-15 17 -12 21 3 5 1 11 -5 15 -13 8 -13 25 0 25 6 0 11 -7 11 -15z m-121 -16
c0 -6 -4 -7 -10 -4 -5 3 -10 11 -10 16 0 6 5 7 10 4 6 -3 10 -11 10 -16z m85
11 c-3 -5 -12 -10 -18 -10 -7 0 -6 4 3 10 19 12 23 12 15 0z m-202 -66 c-9
-15 -19 -21 -21 -15 -4 13 16 41 29 41 5 0 2 -12 -8 -26z m177 11 c10 -12 10
-15 -2 -15 -8 0 -15 7 -15 15 0 8 1 15 2 15 2 0 8 -7 15 -15z m-138 -12 c-6
-3 -9 -10 -6 -15 4 -7 2 -8 -5 -4 -9 6 -9 11 0 22 6 8 15 12 18 8 3 -4 0 -9
-7 -11z m43 -24 c11 -17 -1 -21 -15 -4 -8 9 -8 15 -2 15 6 0 14 -5 17 -11z
m255 -9 c0 -5 -4 -10 -10 -10 -5 0 -10 5 -10 10 0 6 5 10 10 10 6 0 10 -4 10
-10z m-252 -55 c-3 -3 -9 2 -12 12 -6 14 -5 15 5 6 7 -7 10 -15 7 -18z m277
15 c3 -5 1 -10 -4 -10 -6 0 -11 5 -11 10 0 6 2 10 4 10 3 0 8 -4 11 -10z
m-299 -27 c-3 -7 1 -13 9 -13 8 0 15 -4 15 -8 0 -5 -10 -8 -22 -8 -38 2 -51
43 -13 43 9 0 14 -6 11 -14z m268 1 c5 -14 4 -15 -9 -4 -17 14 -19 20 -6 20 5
0 12 -7 15 -16z m106 -25 c0 -5 -8 -9 -17 -8 -11 0 -13 3 -5 6 6 2 9 10 6 15
-4 7 -2 8 4 4 7 -4 12 -11 12 -17z m-296 -194 c-4 -8 -11 -12 -16 -9 -6 4 -5
10 3 15 19 12 19 11 13 -6z"/>
<path d="M1734 4173 c-13 -20 -13 -25 -2 -16 8 7 17 11 19 8 3 -2 5 5 5 15 0
25 0 25 -22 -7z"/>
<path d="M1906 4175 c-11 -8 -15 -15 -9 -15 6 0 16 7 23 15 16 19 11 19 -14 0z"/>
<path d="M1820 4162 c0 -5 7 -9 15 -9 8 0 15 4 15 9 0 4 -7 8 -15 8 -8 0 -15
-4 -15 -8z"/>
<path d="M1960 4160 c-8 -5 -12 -12 -9 -15 4 -3 12 1 19 10 14 17 11 19 -10 5z"/>
<path d="M2147 4053 c-13 -12 -7 -23 11 -22 10 0 12 3 4 6 -6 2 -10 9 -6 14 6
10 0 12 -9 2z"/>
<path d="M1692 4028 c-7 -7 -12 -15 -12 -19 0 -9 27 -5 37 6 5 4 2 5 -6 0 -11
-6 -13 -4 -8 8 8 20 5 21 -11 5z"/>
<path d="M1735 4020 c-3 -5 -1 -10 4 -10 6 0 11 5 11 10 0 6 -2 10 -4 10 -3 0
-8 -4 -11 -10z"/>
<path d="M1711 3976 c-10 -12 -6 -15 18 -21 17 -4 34 -11 38 -17 4 -7 1 -9 -9
-6 -8 4 -20 -3 -28 -15 -11 -19 -11 -20 1 -11 8 6 28 10 46 9 29 -2 31 -1 20
16 -7 11 -17 19 -24 19 -7 0 -10 7 -6 18 5 14 3 15 -8 5 -15 -15 -33 -17 -24
-4 9 16 -12 22 -24 7z"/>
<path d="M2255 3970 c3 -5 10 -10 16 -10 5 0 9 5 9 10 0 6 -7 10 -16 10 -8 0
-12 -4 -9 -10z"/>
<path d="M1778 3898 c17 -17 15 -31 -2 -25 -10 4 -13 1 -9 -9 6 -16 23 -19 23
-4 0 18 22 10 27 -10 3 -11 9 -20 14 -20 4 0 7 9 6 20 -1 11 -5 20 -9 20 -4 0
-7 6 -5 13 1 6 -6 11 -15 11 -10 -1 -18 2 -18 7 0 5 -5 9 -12 9 -9 0 -9 -3 0
-12z"/>
<path d="M2468 3825 c-3 -14 -1 -25 3 -25 5 0 9 11 9 25 0 14 -2 25 -4 25 -2
0 -6 -11 -8 -25z"/>
<path d="M1905 3800 c-3 -6 1 -13 9 -16 9 -3 16 -12 16 -20 0 -8 5 -14 10 -14
13 0 13 17 -1 25 -6 4 -8 13 -5 21 6 16 -19 19 -29 4z"/>
<path d="M2490 3806 c0 -2 7 -7 16 -10 8 -3 12 -2 9 4 -6 10 -25 14 -25 6z"/>
<path d="M1870 3779 c0 -5 5 -7 10 -4 6 3 10 8 10 11 0 2 -4 4 -10 4 -5 0 -10
-5 -10 -11z"/>
<path d="M2520 3766 c0 -2 7 -9 15 -16 13 -11 14 -10 9 4 -5 14 -24 23 -24 12z"/>
<path d="M1860 3750 c-8 -5 -10 -10 -5 -10 6 0 17 5 25 10 8 5 11 10 5 10 -5
0 -17 -5 -25 -10z"/>
<path d="M1935 3730 c3 -5 8 -10 11 -10 2 0 4 5 4 10 0 6 -5 10 -11 10 -5 0
-7 -4 -4 -10z"/>
<path d="M1905 3721 c-3 -5 -2 -12 3 -15 5 -3 9 1 9 9 0 17 -3 19 -12 6z"/>
<path d="M1955 3700 c3 -5 8 -10 11 -10 2 0 4 5 4 10 0 6 -5 10 -11 10 -5 0
-7 -4 -4 -10z"/>
<path d="M2600 3690 c0 -5 5 -10 10 -10 6 0 10 5 10 10 0 6 -4 10 -10 10 -5 0
-10 -4 -10 -10z"/>
<path d="M2665 3633 c0 -23 5 -38 13 -39 6 -1 17 -2 22 -3 6 0 10 -7 10 -15 0
-8 7 -16 15 -20 20 -7 19 1 -3 28 -9 13 -25 22 -34 20 -11 -1 -15 3 -11 12 3
8 10 11 15 8 6 -4 2 5 -7 20 -10 14 -18 26 -19 26 -1 0 -1 -17 -1 -37z"/>
<path d="M2696 3648 c3 -5 10 -6 15 -3 13 9 11 12 -6 12 -8 0 -12 -4 -9 -9z"/>
<path d="M2141 3581 c-10 -7 -7 -9 12 -8 14 1 23 5 20 10 -6 9 -15 9 -32 -2z"/>
<path d="M2238 3583 c7 -3 16 -2 19 1 4 3 -2 6 -13 5 -11 0 -14 -3 -6 -6z"/>
<path d="M2196 3532 c-3 -5 1 -9 9 -9 8 0 12 4 9 9 -3 4 -7 8 -9 8 -2 0 -6 -4
-9 -8z"/>
<path d="M2422 3507 c-15 -15 -18 -27 -12 -37 5 -8 13 -11 17 -6 4 5 2 11 -5
13 -8 3 -5 11 10 23 13 10 20 21 17 24 -3 3 -15 -4 -27 -17z"/>
<path d="M2350 3514 c0 -20 27 -37 36 -23 4 7 3 9 -4 5 -6 -3 -15 2 -21 11 -6
10 -11 13 -11 7z"/>
<path d="M2275 3500 c-3 -6 1 -7 9 -4 18 7 21 14 7 14 -6 0 -13 -4 -16 -10z"/>
<path d="M2820 3493 c0 -5 13 -14 29 -20 24 -9 29 -8 24 3 -3 8 -9 14 -13 14
-5 0 -15 3 -24 6 -9 3 -16 2 -16 -3z"/>
<path d="M2470 3429 c0 -5 5 -7 10 -4 6 3 10 8 10 11 0 2 -4 4 -10 4 -5 0 -10
-5 -10 -11z"/>
<path d="M2827 3428 c4 -7 8 -16 8 -20 0 -5 5 -8 10 -8 13 0 13 23 0 32 -16
12 -27 9 -18 -4z"/>
<path d="M2597 3295 c-6 -15 10 -32 20 -21 4 3 1 6 -5 6 -6 0 -9 7 -6 15 4 8
4 15 1 15 -3 0 -7 -7 -10 -15z"/>
<path d="M3040 3276 c0 -2 7 -7 16 -10 8 -3 12 -2 9 4 -6 10 -25 14 -25 6z"/>
<path d="M2630 3196 c0 -2 7 -7 16 -10 8 -3 12 -2 9 4 -6 10 -25 14 -25 6z"/>
<path d="M2761 3004 c0 -11 3 -14 6 -6 3 7 2 16 -1 19 -3 4 -6 -2 -5 -13z"/>
<path d="M3375 2990 c-3 -5 -1 -10 4 -10 6 0 11 5 11 10 0 6 -2 10 -4 10 -3 0
-8 -4 -11 -10z"/>
<path d="M2786 2945 c4 -8 8 -15 10 -15 2 0 4 7 4 15 0 8 -4 15 -10 15 -5 0
-7 -7 -4 -15z"/>
<path d="M3617 2793 c-4 -3 -7 -11 -7 -17 0 -6 5 -5 12 2 6 6 9 14 7 17 -3 3
-9 2 -12 -2z"/>
<path d="M2264 2604 c-2 -24 -1 -25 17 -8 10 9 19 19 19 22 0 3 -3 2 -7 -1 -3
-4 -11 -3 -17 2 -7 6 -11 1 -12 -15z"/>
<path d="M2188 2608 c-7 -16 18 -35 30 -23 3 3 0 5 -6 5 -6 0 -12 8 -14 18 -3
15 -4 16 -10 0z"/>
<path d="M2348 2598 c5 -5 16 -8 23 -6 8 3 3 7 -10 11 -17 4 -21 3 -13 -5z"/>
<path d="M2310 2581 c0 -6 5 -13 10 -16 8 -5 7 -11 -1 -21 -6 -8 -9 -17 -5
-21 3 -3 6 -1 6 5 0 6 7 9 15 6 8 -4 15 -13 15 -21 0 -13 -3 -13 -15 -3 -8 7
-15 9 -15 4 0 -5 -7 -1 -14 9 -8 10 -30 20 -49 23 l-36 4 5 -37 c2 -21 2 -32
-2 -25 -3 6 -10 10 -15 6 -5 -3 -6 -11 -2 -17 15 -25 10 -44 -10 -39 -17 4
-18 7 -5 16 13 10 13 13 2 24 -19 17 -19 49 -1 33 14 -11 27 -6 27 10 0 5 -7
6 -15 3 -10 -4 -15 0 -16 12 0 11 -3 14 -6 6 -2 -6 -9 -10 -13 -7 -9 6 -8 -7
5 -57 5 -20 3 -28 -6 -28 -8 -1 -3 -7 11 -15 18 -10 20 -14 8 -15 -9 0 -19 -4
-22 -8 -6 -10 25 -9 42 1 8 6 10 3 6 -7 -3 -9 -12 -16 -20 -16 -8 0 -13 -9
-12 -24 1 -15 7 -22 15 -19 9 4 13 -5 13 -30 0 -20 5 -39 12 -43 8 -5 9 0 6
14 -4 12 -2 22 3 22 5 0 9 -7 9 -15 0 -8 5 -15 11 -15 8 0 8 -5 -1 -15 -7 -8
-17 -12 -24 -8 -6 4 -5 -1 3 -10 7 -9 18 -14 24 -10 6 3 7 1 3 -6 -4 -6 -12
-9 -17 -6 -5 4 -9 -1 -9 -10 0 -9 5 -13 10 -10 6 3 10 2 10 -4 0 -5 -6 -12
-12 -15 -7 -3 -2 -3 12 1 22 5 23 4 11 -11 -9 -11 -10 -16 -2 -16 6 0 14 7 17
15 4 8 10 15 15 15 5 0 2 -11 -7 -25 -16 -24 -16 -25 2 -18 17 6 17 5 5 -10
-7 -9 -17 -15 -21 -12 -5 3 -11 1 -15 -4 -6 -11 27 -7 46 5 8 4 9 -1 4 -17
-12 -38 -11 -44 4 -41 9 2 12 -4 8 -18 -3 -11 -1 -20 4 -20 5 0 9 7 9 17 0 9
3 13 8 9 4 -4 7 -17 7 -29 0 -15 6 -21 18 -19 9 2 17 -2 17 -9 0 -7 -9 -9 -25
-5 -31 8 -33 -6 -2 -19 15 -7 22 -18 22 -38 -1 -18 3 -26 12 -23 7 3 12 2 11
-2 -1 -4 3 -22 10 -40 7 -22 16 -31 23 -26 7 4 9 3 5 -4 -3 -6 -2 -13 4 -17 5
-3 8 -20 5 -38 l-6 -31 22 20 22 19 -14 -22 c-8 -13 -18 -23 -23 -23 -6 0 -1
-7 10 -16 16 -13 16 -15 2 -10 -10 3 -18 1 -18 -4 0 -6 5 -10 10 -10 6 0 10
-7 10 -15 0 -10 6 -12 18 -8 15 6 15 5 3 -10 -11 -14 -11 -18 2 -23 12 -4 14
-11 7 -29 -8 -20 -6 -23 10 -20 16 3 17 0 9 -28 -6 -22 -5 -33 4 -39 11 -7 2
-12 -16 -9 -5 1 -7 -4 -4 -11 2 -7 9 -12 14 -11 5 1 10 -15 11 -35 2 -20 7
-41 12 -46 6 -6 8 -1 5 12 -5 28 1 28 16 1 14 -27 -7 -44 -31 -26 -13 10 -13
10 -3 -4 7 -9 9 -20 5 -25 -4 -4 2 -2 12 6 18 14 19 13 14 -8 -5 -19 -4 -21 8
-11 8 6 17 9 21 5 3 -3 1 -6 -6 -6 -9 0 -9 -5 -1 -21 7 -11 9 -27 6 -34 -3 -9
0 -12 9 -9 7 3 25 -5 39 -17 l26 -23 -27 -12 -28 -12 33 3 c27 3 32 1 27 -14
-3 -12 1 -17 15 -18 11 -1 20 3 20 10 0 21 23 -11 25 -35 2 -19 8 -23 33 -23
20 0 27 -3 22 -10 -5 -6 -5 -17 0 -25 6 -8 10 -12 10 -8 0 4 12 1 26 -7 14 -7
38 -12 54 -11 16 1 27 -1 25 -4 -2 -3 0 -12 6 -20 5 -9 9 -10 9 -3 0 15 29 10
41 -8 5 -8 9 -10 9 -5 0 6 7 1 15 -10 8 -11 15 -14 15 -6 0 18 20 15 20 -4 0
-8 5 -12 11 -9 6 4 8 13 5 21 -3 7 -1 16 5 19 5 4 9 3 8 -2 -3 -20 2 -25 16
-13 12 10 15 10 15 -3 0 -9 4 -19 10 -22 6 -4 7 1 3 11 -4 11 -3 15 5 10 6 -3
13 -2 17 4 3 5 15 10 26 10 11 0 18 -4 15 -9 -7 -10 24 -25 33 -16 3 3 0 15
-7 25 -15 25 -15 27 4 34 14 5 15 4 4 -9 -8 -10 -9 -15 -1 -15 6 0 11 -7 11
-15 0 -8 4 -15 9 -15 4 0 6 11 3 25 -3 16 0 25 8 25 7 0 10 -7 7 -14 -4 -10
-1 -13 9 -9 7 3 14 9 14 15 0 5 6 6 13 2 10 -6 10 -4 0 7 -18 18 -16 34 2 19
12 -10 15 -10 15 4 0 9 5 16 12 16 7 0 5 6 -4 18 -11 12 -13 23 -7 37 9 19 9
19 5 -1 -3 -22 17 -46 44 -52 11 -3 11 1 -2 15 -27 30 -27 73 0 74 11 0 12 2
4 6 -10 4 -10 8 0 21 7 9 8 13 2 9 -16 -10 -35 16 -24 33 6 9 13 11 22 4 8 -5
6 -2 -4 8 -18 16 -20 41 -5 66 5 7 3 12 -7 12 -9 0 -15 -3 -15 -7 3 -17 -1
-33 -8 -33 -5 0 -7 18 -7 40 2 37 0 39 -18 29 -11 -6 -22 -8 -26 -5 -3 3 -1 6
5 6 5 0 10 7 10 15 0 8 -4 15 -8 15 -5 0 -6 7 -2 15 3 9 2 15 -3 14 -23 -4
-48 2 -37 9 14 9 -5 47 -24 47 -7 0 -13 4 -12 10 0 5 -8 12 -18 16 -17 7 -17
8 0 8 21 1 22 17 1 25 -10 4 -13 2 -8 -6 5 -7 3 -8 -5 -3 -7 4 -11 16 -8 26 4
14 0 19 -16 20 -21 0 -21 1 -2 9 11 5 14 9 7 9 -7 1 -10 6 -6 13 4 6 3 9 -2 5
-5 -3 -18 1 -29 9 -10 8 -14 14 -8 14 7 0 11 9 10 19 -1 13 -6 17 -17 13 -12
-5 -13 -3 -2 10 15 19 6 48 -17 49 -10 0 -11 2 -3 6 6 2 10 9 7 13 -3 5 -12 7
-20 3 -8 -3 -15 0 -15 6 0 6 5 11 11 11 8 0 8 5 -1 15 -10 12 -10 15 0 15 8 0
10 3 7 6 -4 4 -13 1 -22 -6 -12 -10 -15 -10 -15 4 0 10 -4 14 -10 11 -17 -11
-11 7 8 21 16 12 15 13 -4 8 -12 -3 -25 -1 -28 5 -4 6 -2 11 5 11 8 0 8 4 -1
15 -7 8 -20 15 -30 15 -10 0 -20 7 -24 15 -3 8 -1 15 4 15 6 0 10 -4 10 -10 0
-5 5 -10 10 -10 18 0 10 22 -10 27 -11 3 -17 9 -14 14 3 5 0 9 -5 9 -12 0 -15
26 -3 33 4 2 2 3 -4 1 -6 -1 -18 6 -27 16 -11 14 -12 21 -4 30 9 8 8 10 -3 5
-9 -3 -24 1 -35 9 -18 13 -18 14 4 21 21 6 21 8 5 20 -15 11 -20 10 -31 -4 -9
-11 -12 -12 -13 -3 0 7 -4 10 -10 7 -6 -3 -11 5 -11 19 -1 14 -2 32 -3 39 -1
11 -22 30 -38 33 -21 4 -21 6 -3 14 19 8 19 9 1 9 -13 1 -17 6 -13 21 3 10 1
20 -5 22 -5 2 -10 11 -12 20 -1 10 -5 20 -8 23 -7 7 -4 -25 4 -45 11 -26 6
-48 -10 -43 -10 4 -11 8 -2 13 9 6 9 13 1 28 -15 29 -44 18 -38 -14 2 -13 0
-21 -5 -18 -4 3 -7 18 -6 34 1 16 6 26 10 24 4 -3 8 0 8 6 0 6 5 8 12 4 7 -5
8 -3 4 5 -5 7 -14 10 -22 7 -8 -3 -14 -1 -14 4 0 6 -7 10 -15 10 -8 0 -12 -6
-9 -14 3 -8 1 -17 -5 -21 -7 -3 -8 0 -5 10 4 10 -4 19 -27 29 -19 8 -33 17
-31 20 5 13 1 46 -5 45 -20 -3 -23 2 -8 17 12 13 13 19 4 24 -7 5 -8 13 -3 21
6 11 3 10 -10 -1 -10 -8 -22 -23 -27 -35 -8 -17 -9 -16 -4 6 3 18 0 29 -9 32
-16 6 -30 -19 -16 -28 6 -4 10 -12 9 -18 0 -9 -2 -9 -6 1 -2 6 -9 12 -14 12
-6 0 -7 -5 -3 -12 4 -7 3 -8 -5 -4 -6 4 -9 12 -5 17 11 19 14 59 4 59 -6 0 -8
-4 -5 -10 3 -5 1 -10 -5 -10 -6 0 -8 -4 -5 -10 3 -5 1 -10 -4 -10 -12 0 -10
28 3 49 6 10 5 12 -2 7 -7 -4 -12 -1 -12 8 0 9 5 16 10 16 6 0 10 5 10 11 0 8
-4 8 -14 0 -11 -9 -15 -9 -20 1 -3 7 -4 3 -2 -9 2 -14 -1 -23 -9 -23 -8 0 -11
9 -7 25 3 19 0 25 -14 25 -16 0 -17 -2 -4 -10 13 -8 12 -10 -2 -10 -10 0 -18
7 -18 15 0 8 -4 15 -10 15 -5 0 -10 -4 -10 -9z m-60 -117 c0 -8 -5 -12 -10 -9
-6 4 -8 11 -5 16 9 14 15 11 15 -7z m121 -37 c-10 -9 -11 -8 -5 6 3 10 9 15
12 12 3 -3 0 -11 -7 -18z m-129 -63 c-17 -11 -26 -12 -39 -4 -16 10 -15 10 4
5 12 -3 24 -1 28 5 3 5 11 10 18 10 6 0 1 -7 -11 -16z m-2 -28 c0 -3 -4 -8
-10 -11 -5 -3 -10 -1 -10 4 0 6 5 11 10 11 6 0 10 -2 10 -4z m40 -36 c0 -5 -2
-10 -4 -10 -3 0 -8 5 -11 10 -3 6 -1 10 4 10 6 0 11 -4 11 -10z m7 -46 c-3 -3
-12 -4 -19 -1 -8 3 -5 6 6 6 11 1 17 -2 13 -5z m10 -50 c-3 -3 -12 -4 -19 -1
-8 3 -5 6 6 6 11 1 17 -2 13 -5z m453 -38 c0 -6 -7 -2 -15 8 -8 11 -15 25 -15
30 0 6 7 2 15 -8 8 -11 15 -25 15 -30z m-420 -6 c0 -5 -5 -10 -11 -10 -5 0 -7
5 -4 10 3 6 8 10 11 10 2 0 4 -4 4 -10z m30 -90 c0 -5 -2 -10 -4 -10 -3 0 -8
5 -11 10 -3 6 -1 10 4 10 6 0 11 -4 11 -10z m460 0 c0 -5 -5 -10 -11 -10 -5 0
-7 5 -4 10 3 6 8 10 11 10 2 0 4 -4 4 -10z m50 -70 c0 -5 -5 -10 -11 -10 -5 0
-7 5 -4 10 3 6 8 10 11 10 2 0 4 -4 4 -10z m180 -250 c0 -5 -4 -10 -9 -10 -6
0 -13 5 -16 10 -3 6 1 10 9 10 9 0 16 -4 16 -10z m235 -430 c3 -5 1 -10 -4
-10 -6 0 -11 5 -11 10 0 6 2 10 4 10 3 0 8 -4 11 -10z m-472 -185 c-3 -9 -8
-14 -10 -11 -3 3 -2 9 2 15 9 16 15 13 8 -4z m401 -13 c3 -5 -1 -9 -9 -9 -8 0
-12 4 -9 9 3 4 7 8 9 8 2 0 6 -4 9 -8z"/>
<path d="M2145 2569 c-4 -6 -14 -8 -24 -4 -13 5 -14 4 -3 -6 10 -11 15 -10 29
4 10 9 14 17 11 17 -4 0 -10 -5 -13 -11z"/>
<path d="M2245 2568 c11 -7 30 -13 43 -14 20 -2 21 -1 6 13 -13 14 -17 14 -25
2 -6 -10 -9 -10 -9 -1 0 6 -8 12 -17 12 -16 -1 -15 -2 2 -12z"/>
<path d="M2470 2506 c0 -8 4 -17 9 -21 6 -3 9 4 8 15 -1 23 -17 28 -17 6z"/>
<path d="M3244 2509 c-4 -7 -3 -9 4 -5 5 3 13 0 15 -6 4 -9 6 -10 6 -1 1 17
-16 25 -25 12z"/>
<path d="M2136 2501 c-3 -5 1 -11 9 -14 9 -4 12 -1 8 9 -6 16 -10 17 -17 5z"/>
<path d="M2545 2440 c-3 -5 -1 -10 4 -10 6 0 11 5 11 10 0 6 -2 10 -4 10 -3 0
-8 -4 -11 -10z"/>
<path d="M2558 2419 c-14 -8 -15 -14 -6 -34 6 -13 18 -27 27 -30 8 -3 12 -3 8
1 -4 4 -1 14 6 22 10 13 9 15 -7 8 -20 -7 -20 -7 -1 16 11 13 13 17 5 11 -20
-18 -35 -16 -20 2 14 17 12 18 -12 4z"/>
<path d="M2778 2163 c7 -3 16 -2 19 1 4 3 -2 6 -13 5 -11 0 -14 -3 -6 -6z"/>
<path d="M2405 1820 c-4 -6 -5 -10 -3 -11 25 -6 38 -6 38 1 0 12 -29 20 -35
10z"/>
<path d="M2480 1580 c0 -5 5 -10 11 -10 5 0 7 5 4 10 -3 6 -8 10 -11 10 -2 0
-4 -4 -4 -10z"/>
<path d="M3300 1206 c0 -8 4 -17 9 -20 5 -4 7 3 4 14 -6 23 -13 26 -13 6z"/>
<path d="M2690 1194 c0 -8 5 -12 10 -9 6 4 8 11 5 16 -9 14 -15 11 -15 -7z"/>
<path d="M2915 1069 c-4 -6 -5 -12 -2 -15 2 -3 7 2 10 11 7 17 1 20 -8 4z"/>
</g>
</svg>
